<?xml version="1.0" encoding="UTF-8"?>
<svg id="Camada_1" data-name="Camada 1" xmlns="http://www.w3.org/2000/svg" viewBox="0 0 462.91 331.11">
  <defs>
    <style>
      .cls-1 {
        fill: #fff;
        stroke-width: 0px;
      }
    </style>
  </defs>
  <g>
    <path class="cls-1" d="M168.9,123.86h88.77c-3.5-8.41-10.82-13.55-18.86-13.56-6.98,0-13.96.09-20.93-.06-1.93-.04-4.09-.38-5.73-1.31-13.87-7.88-27.64-15.92-41.43-23.93-.52-.3-.94-.76-1.22-1.64,7.9,2.06,15.8,4.11,23.69,6.18,30.71,8.04,61.42,16.07,92.13,24.12,7.09,1.86,10.18,6.12,9.56,13.43-4.85-.67-8.73,1.96-12.8,4.03-4.14,2.1-8.3,4.17-12.43,6.3-4.44,2.29-9.04,2.77-13.98,1.94-27.19-4.57-54.39-9.01-81.59-13.53-1.78-.29-3.52-.79-5.28-1.19.03-.26.07-.52.1-.78Z"/>
    <path class="cls-1" d="M263.22,197.91c2.18-11.1,4.32-21.95,6.46-32.85-.85-1.15-1.66-2.24-3.03-4.1,2.61,0,4.52,0,6.43,0,5.27,0,10.53-.04,15.8.03,1.84.03,3.72.17,5.51.58,3.35.77,6.05,2.46,6.81,6.13.76,3.61-.28,6.71-2.97,9.23-.78.73-1.67,1.35-2.52,2.02,6.88,7.2,4.68,15.56-4.82,18.37-2.05.61-4.25.94-6.39.99-5.88.14-11.77.09-17.65.07-1.04,0-2.08-.26-3.65-.48ZM275.12,182.6c-.61,3.21-1.12,5.88-1.72,8.97,4.43,0,8.44.3,12.38-.08,4.23-.42,5.39-2.7,4.25-7.47-4.52-2.46-9.51-.98-14.91-1.42ZM276.52,175.77c4.46,0,8.17.26,11.82-.09,2.37-.23,3.98-2.59,3.76-4.61-.27-2.51-2.13-3.28-4.29-3.36-3.2-.11-6.41-.03-9.78-.03-.54,2.89-.98,5.27-1.51,8.09Z"/>
    <path class="cls-1" d="M307.81,161.05c7.74,0,14.71-.18,21.65.05,6.19.21,10.32,3.25,11.78,8.07,1.65,5.42-.51,11.82-5.22,15.23-1.35.98-2.84,1.78-4.65,2.9,1,1.82,1.97,3.53,2.89,5.25.93,1.73,1.81,3.49,2.92,5.63h-9.02c-1.93-3.29-3.87-6.59-5.84-9.95h-7.11c-.74,3.15-1.5,6.39-2.32,9.89h-8.44c1.41-11.15,4.4-21.79,6.14-32.96-.7-1.03-1.54-2.27-2.8-4.11ZM331.93,170.42c-3.65-3.41-8.24-1.97-12.84-1.89-.76,3.56-1.45,6.7-2.09,9.84-.12.57-.02,1.18-.02,2.42,2.53,0,4.96-.04,7.38,0,6.07.12,9.81-4.2,7.57-10.38Z"/>
    <path class="cls-1" d="M371.67,161.29c2.97,12.03,5.96,24.12,9.07,36.7h-8.64c-.6-2.15-1.22-4.35-2.03-7.26-5.58-.25-11.37-.2-17.21,0-1.63,2.53-3.13,4.86-4.77,7.4h-9.32c7.42-11.5,14.52-22.49,21.73-33.68-.33-.91-.68-1.87-1.15-3.17h12.31ZM368.66,183.33c-1.06-4.61-1.96-8.52-3.11-13.5-3.04,4.96-5.48,8.95-8.27,13.5h11.37Z"/>
    <path class="cls-1" d="M382.58,195.01c1.27-2.38,2.27-4.26,3.44-6.45,1.45.59,2.71,1.05,3.93,1.6,3.79,1.72,7.77,2.08,11.82,1.46,3.13-.48,3.82-1.46,4.13-5.56-1.71-.76-3.6-1.69-5.56-2.43-2.17-.82-4.49-1.26-6.59-2.2-6.63-2.97-8.15-10.16-3.39-15.68.7-.81,1.52-1.55,2.4-2.18,6.32-4.54,18.04-4.47,24.89.34-.86,1.83-1.76,3.73-2.44,5.16-4.71-.51-8.95-1.34-13.18-1.33-3.9.02-4.98,1.64-4.97,6.03,1.59.68,3.36,1.52,5.2,2.2,2.32.86,4.77,1.4,7.01,2.41,6.23,2.81,7.95,9.15,3.7,14.48-1.56,1.96-3.88,3.69-6.21,4.59-8.15,3.15-16.04,1.97-24.17-2.44Z"/>
    <path class="cls-1" d="M219.97,198.17h-8.67c2.19-11.11,4.33-21.91,6.51-32.96-.71-1.08-1.52-2.33-2.59-3.96h31.78c-.39,2.18-.74,4.07-1.17,6.49h-19.39c-.76,3.35-1.42,6.27-2.22,9.84h17.17c-.44,2.64-.78,4.65-1.2,7.17h-17.08c-1.1,4.7-2.1,8.98-3.14,13.43Z"/>
    <path class="cls-1" d="M182.38,199c-12.58-.33-19.28-8.74-16.64-21.06,3.53-16.48,20.73-20.46,31.61-15.55,5.63,2.54,8.24,7.31,8.48,13.34.52,13.23-9.99,23.63-23.45,23.27ZM187.55,165.58c-9.73.01-16.99,7.33-16.89,17.03.05,5.32,3.02,9.37,7.87,10.73,9.61,2.69,18.61-2.51,21.1-12.21,2.39-9.32-2.45-15.56-12.07-15.55Z"/>
    <path class="cls-1" d="M150.32,186.61c2.09,3.87,4.06,7.5,6.25,11.55h-5.55c-2.07-3.44-4.27-7.11-6.5-10.81h-10.84c-.82,3.62-1.59,7.04-2.43,10.73h-5.42c2.21-11.16,4.35-21.98,6.54-33.02-.67-1.07-1.39-2.2-2.19-3.48.46-.22.82-.54,1.18-.54,5.88-.03,11.77-.15,17.65,0,6.35.17,10.5,3.05,11.86,7.84,1.51,5.34-.92,11.97-5.64,15.08-1.41.93-2.98,1.61-4.9,2.64ZM134.63,182.08c4.46,0,8.44.2,12.39-.09,1.75-.13,3.58-1.01,5.09-1.99,2.93-1.91,4.22-6.03,3.31-9.44-.74-2.75-3.26-4.52-7.2-4.71-3.36-.16-6.73-.03-10.36-.03-1.11,5.58-2.14,10.79-3.22,16.27Z"/>
    <path class="cls-1" d="M123.91,161.24c-.42,1.74-.71,2.92-1.08,4.44h-20.78c-.8,3.68-1.53,7.07-2.42,11.16h18.74c-.43,1.97-.7,3.23-1.06,4.86h-18.59c-.78,3.94-1.5,7.53-2.33,11.72h21.39c-.17,1.86-.29,3.14-.43,4.7h-27.13c1.32-11.17,4.47-21.78,6.03-32.79-.83-1.23-1.66-2.46-2.76-4.08h30.42Z"/>
    <path class="cls-1" d="M84.33,198.15h-5.25c-.85-2.88-1.7-5.78-2.6-8.84h-19.62c-1.8,2.67-3.78,5.59-5.94,8.79h-5.64c3.52-6.08,7.31-11.4,10.84-16.87,3.6-5.59,7.29-11.11,11.03-16.79-.39-.98-.77-1.94-1.28-3.19h9.11c3.07,12.12,6.14,24.18,9.36,36.9ZM75.43,184.23c-1.41-5.83-2.73-11.24-4.27-17.61-4,6.33-7.59,11.68-11.15,17.61h15.43Z"/>
    <path class="cls-1" d="M254.43,198.18h-8.84c2.22-11.3,4.36-22.25,6.55-33.39-.67-1.01-1.41-2.12-2.4-3.6h12.09c-2.49,12.46-4.92,24.6-7.4,36.99Z"/>
  </g>
  <g>
    <path class="cls-1" d="M120.79,242.39l12.12-18.22h3.37l3.53,18.22h-2.77l-1.04-5.24h-8.65l-3.43,5.24h-3.14ZM128.58,235.26h7.07l-.83-4.57c-.32-1.81-.52-3.33-.6-4.54-.49,1.04-1.2,2.28-2.13,3.72l-3.51,5.39Z"/>
    <path class="cls-1" d="M162.41,242.39l-4.11-18.22h2.76l2.48,10.86c.46,1.97.75,3.56.89,4.77.89-1.56,1.63-2.79,2.2-3.7l7.63-11.93h2.94l-11.73,18.22h-3.06Z"/>
    <path class="cls-1" d="M191.16,242.39l4.48-18.22h2.84l-4.46,18.22h-2.86Z"/>
    <path class="cls-1" d="M212.09,242.39l12.12-18.22h3.37l3.53,18.22h-2.77l-1.04-5.24h-8.65l-3.43,5.24h-3.14ZM219.88,235.26h7.07l-.83-4.57c-.32-1.81-.52-3.33-.6-4.54-.49,1.04-1.2,2.28-2.13,3.72l-3.51,5.39Z"/>
    <path class="cls-1" d="M265.56,235.97l2.83.34c-.9,2.11-2.2,3.7-3.91,4.77-1.71,1.08-3.63,1.62-5.76,1.62-2.6,0-4.66-.68-6.18-2.03-1.52-1.35-2.28-3.28-2.28-5.8,0-3.28,1.16-5.99,3.47-8.14,2.06-1.91,4.62-2.87,7.69-2.87,2.26,0,4.1.52,5.5,1.55s2.22,2.43,2.44,4.18l-2.67.21c-.28-1.32-.86-2.3-1.74-2.95s-2.02-.98-3.41-.98c-2.62,0-4.73.99-6.34,2.97-1.4,1.71-2.1,3.73-2.1,6.08,0,1.87.54,3.3,1.62,4.29,1.08.99,2.49,1.48,4.22,1.48,1.48,0,2.81-.41,4.01-1.23,1.2-.82,2.07-1.98,2.61-3.48ZM255.6,244.31l.6-2h2.04l-.35,1.12c.86.1,1.51.35,1.95.75s.67.86.67,1.36c0,.6-.3,1.07-.89,1.43-.86.51-2.22.77-4.1.77-.94,0-1.77-.05-2.48-.15l.32-1.39c.59.02,1.3.04,2.13.04,1,0,1.67-.09,1.99-.27.33-.18.49-.38.49-.61,0-.27-.14-.48-.42-.66-.42-.25-1.07-.38-1.95-.38Z"/>
    <path class="cls-1" d="M283.45,242.39l12.12-18.22h3.37l3.53,18.22h-2.77l-1.04-5.24h-8.65l-3.43,5.24h-3.14ZM291.24,235.26h7.07l-.83-4.57c-.32-1.81-.52-3.33-.6-4.54-.49,1.04-1.2,2.28-2.13,3.72l-3.51,5.39ZM292.5,223.09c.32-1.1.72-1.84,1.19-2.22.47-.38,1.06-.57,1.77-.57.32,0,.63.03.94.1s.84.24,1.6.53c.76.29,1.28.43,1.56.43.22,0,.42-.07.6-.2s.32-.4.44-.78h1.77c-.1.85-.42,1.52-.97,2-.55.48-1.18.72-1.9.72-.39,0-.88-.11-1.47-.32-1.34-.5-2.17-.75-2.48-.75s-.57.08-.77.25c-.2.17-.35.44-.44.8h-1.82Z"/>
    <path class="cls-1" d="M321.64,234.76c0-3.25,1.1-5.88,3.3-7.88,2.2-2.01,4.87-3.01,8.01-3.01,2.67,0,4.84.74,6.51,2.22,1.68,1.48,2.52,3.46,2.52,5.95,0,1.77-.42,3.42-1.27,4.93-.63,1.13-1.43,2.11-2.39,2.94s-1.99,1.46-3.09,1.91c-1.46.6-3,.89-4.64.89s-3.27-.35-4.67-1.04c-1.4-.7-2.47-1.67-3.19-2.92-.72-1.25-1.09-2.57-1.09-3.98ZM324.45,234.88c0,1.07.26,2.05.78,2.94s1.29,1.6,2.33,2.1c1.03.51,2.12.76,3.25.76s2.14-.22,3.14-.66c.99-.44,1.88-1.06,2.66-1.85.78-.79,1.4-1.76,1.85-2.92.45-1.15.68-2.29.68-3.41,0-1.81-.6-3.26-1.79-4.34-1.19-1.08-2.66-1.62-4.41-1.62-2.24,0-4.21.81-5.92,2.44-1.71,1.63-2.57,3.81-2.57,6.56Z"/>
  </g>
</svg>