<?xml version="1.0" encoding="UTF-8"?>
<svg id="Camada_1" data-name="Camada 1" xmlns="http://www.w3.org/2000/svg" viewBox="0 0 462.91 331.11">
  <defs>
    <style>
      .cls-1 {
        fill: #fff;
        fill-rule: evenodd;
        stroke-width: 0px;
      }
    </style>
  </defs>
  <path class="cls-1" d="M82.45,270.67s3.61,1.29,7.63,1.29c4.29,0,7.01-.55,8.51-2.11,1.23-1.29,1.77-3.34,1.7-6.4v-20.56h6.4v21.52c-.07,9.53-4.7,13.55-15.39,13.55-5.25,0-8.78-.82-8.78-.82v-6.47h-.07ZM110.36,263.66c0,6.54,4.22,14.23,16.28,14.23s16.27-7.63,16.27-14.23c0-9.13-6.13-14.64-16.27-14.64-10.21-.07-16.28,5.45-16.28,14.64ZM126.71,272.17c-3.75,0-9.94-1.16-9.94-8.85,0-5.51,3.61-8.71,9.94-8.71s9.94,3.13,9.94,8.71c-.07,7.69-6.27,8.85-9.94,8.85ZM169.6,249.63v10.97h-16.54v-10.97h-6.4v27.51h6.4v-10.96h16.54v10.96h6.4v-27.51h-6.4ZM270.44,271.56v-5.31h14.64v-5.65h-14.64v-5.31h18.93v-5.65h-25.26v27.51h25.26v-5.65h-18.93v.07ZM299.99,271.56v-5.31h14.64v-5.65h-14.64v-5.31h18.93v-5.65h-25.33v27.51h25.26v-5.65h-18.92v.07h.07ZM361.54,271.56v-5.31h14.64v-5.65h-14.64v-5.31h18.92v-5.65h-25.26v27.51h25.26v-5.65h-18.92v.07ZM232.51,248.48v23.01h8.92c4.9,0,13.08-1.5,13.08-11.64,0-7.29-4.77-11.37-13.08-11.37h-8.92ZM241.43,242.76c12.19,0,19.4,6.54,19.4,17.43,0,7.83-5.11,16.95-19.4,16.95h-15.32v-34.38h15.32ZM352.28,277.14h-7.63l-7.69-10.08h-7.49v10.08h-6.4v-27.51h17.98c6.19,0,9.87,3.27,9.87,8.85,0,3.33-1.84,7.01-6.6,8.23l7.96,10.42ZM341.45,261.41c1.3,0,3.54-.47,3.54-3.13,0-1.91-1.29-3.07-3.54-3.07h-11.57v6.2h11.57ZM210.32,277.14v-27.51h-6.4v18.59l-16.54-18.59h-6.33v27.51h6.4v-18.79l16.55,18.79h6.33Z"/>
  <path class="cls-1" d="M315.72,133.48c0,18.98-3.19,37.44-9.38,55.14-7.1-12.38-9.95-16.14-9.95-16.14-.16,0-10.16-5.32-12.54-7.41-1.97-1.63-2.85-5.1-3.94-9.19-1.5-5.6-3.47-12.54-8.79-18.11l6.07-2.38c-1.66-11.67-15.39-19.2-15.54-19.2l-.75.25c5.32,6.69,6.82,12.26,6.82,15.54,0,1.63-.28,2.85-.47,3.35-1.5-.63-11.79-3.75-34.72-3-3.35.13-8.32,0-11.17-2.88-1.66-1.5-2.41-3.94-2.41-6.82,0-8.01,3.35-18.7,3.97-20.2l6.04.75c7.1-3.94,9.95-7.41,10.45-8.04l-.28-.28c-6.19.75-14.04,2.38-14.04,2.38.63-1.34,2.13-6.04,2.13-11.17,0-5.57-1.85-11.92-9.07-15.51l-.75.28s4.22,4.57,4.22,10.54c0,1.66-.25,3.47-1.22,5.44-2.38-.88-3.35-1.06-6.07-1.22-1.34-4.82-5.57-8.91-11.29-10.88l-.75.47s6.07,4.35,6.47,10.7c-3,.28-4.38.63-8.16,1.63-1.5-2.56-5.13-4.57-9.7-4.97l-.72.28s5.29,1.85,6.44,5.91c-3.31,1.5-6.66,3.75-9.04,5.72l.25.88c13.76-5.29,26.55-6.91,29.9-2.97.63.59.88,1.34.88,2.25,0,1.22-.47,2.38-1.35,3.94-6.82,1.5-16.89,4.35-25.4,7.57l1.09,3.47s8.44,1.63,11.63,2.38c-.06.28,1.16.41.53,1.63-3.94,8.04-6.79,16.89-7.82,27.02l-2.38.16c-8.32.75-17.11,1.34-25.4,4.69l.59,3.35c13.64,16.86,34.34,27.15,34.59,27.3l.5-.5-4.57-7.07c-1.09-.75-3.97-1.5-3.97-1.5-9.38-3.19-15.86-15.26-16.89-17.36,7.72,0,14.39,2.25,20.99,4.35,4.35,1.38,8.32,2.72,12.54,3.47,7.41,1.22,15.11-.13,22.05-1.09,5.6-.59,11.17-.59,16.61-.25.63.75,6.35,7.69,11.92,10.54,6.82,3.63,26.9,9.54,27.8,9.95.47.47,8.16,8.16,12.85,17.08-22.33,10.29-47.6,15.73-72.93,15.73s-50.57-5.44-73.12-15.86c-7.41-19.2-11.16-39.44-11.16-60.11s3.75-40.94,11.16-60.14c22.49-10.41,47.73-15.86,73.12-15.86s50.6,5.44,72.93,15.86c7.41,19.2,11.17,39.56,11.17,60.14Z"/>
  <path class="cls-1" d="M314.63,64.49c-24.77-12.26-53.29-18.98-83.07-18.98s-58.27,6.94-83.19,19.2c-8.79,21.3-13.76,44.54-13.76,68.84s4.85,47.6,13.6,68.84c24.93,12.26,53.45,19.2,83.22,19.2s58.27-6.82,83.07-19.02c8.91-21.3,13.73-44.72,13.73-69.02.16-24.3-4.69-47.73-13.6-69.06ZM308.96,197.28c-23.27,10.88-49.82,17.08-77.34,17.08s-54.26-6.07-77.34-17.23c-7.82-19.8-12.04-41.25-12.04-63.58s4.22-43.91,12.04-63.74c23.3-10.88,49.7-17.08,77.34-17.08s54.08,5.97,77.16,16.89c7.82,19.92,12.04,41.38,12.26,63.93,0,22.46-4.22,43.91-12.07,63.74Z"/>
</svg>