<?xml version="1.0" encoding="UTF-8"?>
<svg id="Camada_1" data-name="Camada 1" xmlns="http://www.w3.org/2000/svg" viewBox="0 0 462.91 331.11">
  <defs>
    <style>
      .cls-1 {
        fill: #fff;
        stroke-width: 0px;
      }
    </style>
  </defs>
  <path class="cls-1" d="M125.38,122.37l-2.82,16.02c-.26,1.41-1.28,2.44-2.69,2.44h-.26c-5.13-.38-19.61-1.67-28.83-1.67-3.59,0-7.3,1.16-7.3,5.38,0,1.79,1.28,2.95,5.64,5.51l15.63,9.23c9.23,5.38,12.82,12.43,12.82,21.4,0,23.96-20.12,33.7-41.91,33.7-10.51,0-18.71-1.41-25.24-3.33-1.15-.38-2.18-1.03-2.18-2.18v-.39l2.69-15.76c.26-1.41,1.41-2.56,2.95-2.56h.26c5.25.51,18.84,1.92,25.63,1.92,5.13,0,9.35-1.79,9.35-7.56,0-1.92-1.28-3.33-5-5.77l-16.53-10.89c-7.43-4.87-11.02-13.2-11.02-21.14,0-23.07,18.07-29.99,38.44-29.99,10.12,0,23.45,1.66,28.45,3.2,1.02.38,1.92.9,1.92,2.05v.39Z"/>
  <path class="cls-1" d="M198.17,120.83l-2.69,15.63c-.25,1.41-1.67,2.56-3.08,2.56h-25.88c-4.61,0-6.41,1.54-7.3,6.41l-1.67,9.35h31.52c1.28,0,2.18.9,2.18,2.18v.38l-2.69,15.12c-.26,1.41-1.54,2.56-2.95,2.56h-31.52l-1.92,10.64c-.13,1.03-.26,1.79-.26,2.56,0,2.95,1.54,3.84,5.25,3.84h25.89c1.28,0,2.18.9,2.18,2.18v.38l-2.82,15.63c-.25,1.54-1.28,2.31-2.95,2.56-5,.64-12.82,1.54-25.24,1.54-14.99,0-28.71-5.38-28.71-22.17,0-2.05.25-4.23.64-6.54l7.05-40.24c4.49-25.89,19.86-28.71,37.93-28.71,12.43,0,20.25.9,24.99,1.54,1.41.13,2.05.77,2.05,2.05v.51Z"/>
  <path class="cls-1" d="M289.03,120.57l-15.38,87.91c-.51,2.56-3.08,4.74-5.64,4.74h-15.89c-2.31,0-3.72-1.02-4.74-3.46l-18.97-42.93c-.39-.9-.77-1.03-1.15-1.03s-.64.26-.77,1.15l-7.69,43.7c-.26,1.41-1.67,2.56-3.08,2.56h-19.22c-1.28,0-2.18-.9-2.18-2.18v-.38l15.38-87.91c.51-2.56,3.08-4.74,5.64-4.74h15.63c2.44,0,3.46,1.54,4.48,3.72l19.48,44.21c.39.9.51,1.15.9,1.15s.77-.13.9-1.15l7.95-45.36c.26-1.41,1.66-2.56,3.08-2.56h19.22c1.28,0,2.05.9,2.05,2.05v.51Z"/>
  <path class="cls-1" d="M361.95,213.22h-21.78c-1.28,0-2.18-1.15-2.18-2.43l-.38-17.81h-22.81l-6.79,17.81c-.51,1.28-1.66,2.43-2.95,2.43h-22.68c-1.15,0-1.79-.64-1.79-1.66,0-.26.13-.64.26-1.03l31.01-78.43c5-12.69,15.12-15.25,27.3-15.25s21.4,2.56,21.91,15.25l3.33,78.43v.13c0,1.41-1.03,2.56-2.44,2.56M336.96,139.92c0-1.15,0-1.79-1.15-1.79s-1.28.64-1.67,1.79l-12.05,32.55h15.38l-.51-32.55Z"/>
  <path class="cls-1" d="M414.64,120.45c.26-1.66-.77-2.43-2.18-2.43h-21.01c-1.41,0-2.69,1.02-2.95,2.43l-4.01,22.75,28.49-13.35,1.65-9.39Z"/>
  <path class="cls-1" d="M382.7,153.38l-10.09,57.28c-.26,1.28.51,2.56,2.05,2.56h21.01c1.92,0,2.82-1.15,3.08-2.56l12.44-70.63-28.49,13.35Z"/>
</svg>