<?xml version="1.0" encoding="UTF-8"?>
<svg id="Camada_1" data-name="Camada 1" xmlns="http://www.w3.org/2000/svg" viewBox="0 0 462.91 331.11">
  <defs>
    <style>
      .cls-1 {
        fill: #fff;
        stroke-width: 0px;
      }
    </style>
  </defs>
  <g>
    <path class="cls-1" d="M401.45,107.13c.33-2.16-1-3.14-2.81-3.14h-27.17c-1.83,0-3.47,1.34-3.81,3.14l-5.19,29.41,36.85-17.26,2.14-12.14-.02-.02Z"/>
    <path class="cls-1" d="M360.17,149.7l-13.05,74.06c-.33,1.65.67,3.32,2.65,3.32h27.17c2.47,0,3.63-1.49,3.96-3.32l16.1-91.32-36.85,17.26h.02Z"/>
  </g>
  <path class="cls-1" d="M161.15,109.73l-3.65,20.71c-.33,1.83-1.65,3.14-3.47,3.14h-.33c-6.64-.49-25.34-2.16-37.27-2.16-4.63,0-9.44,1.49-9.44,6.95,0,2.32,1.65,3.81,7.28,7.13l20.22,11.93c11.93,6.95,16.57,16.08,16.57,27.68,0,30.97-26.01,43.58-54.17,43.58-13.58,0-24.18-1.83-32.64-4.3-1.49-.49-2.81-1.34-2.81-2.81v-.49s3.47-20.37,3.47-20.37c.33-1.83,1.83-3.32,3.81-3.32h.33c6.79.67,24.36,2.49,33.13,2.49,6.64,0,12.09-2.32,12.09-9.78,0-2.49-1.65-4.32-6.46-7.46l-21.38-14.07c-9.62-6.3-14.25-17.08-14.25-27.34,0-29.82,23.36-38.77,49.7-38.77,13.09,0,30.33,2.16,36.78,4.14,1.34.49,2.49,1.16,2.49,2.65v.49s0-.02,0-.02Z"/>
  <path class="cls-1" d="M255.25,107.73l-3.47,20.22c-.33,1.83-2.16,3.32-3.99,3.32h-33.47c-5.97,0-8.28,1.98-9.44,8.28l-2.16,12.09h40.75c1.65,0,2.81,1.16,2.81,2.81v.49s-3.47,19.55-3.47,19.55c-.33,1.83-1.98,3.32-3.81,3.32h-40.75s-2.49,13.76-2.49,13.76c-.16,1.34-.33,2.32-.33,3.32,0,3.81,1.98,4.97,6.79,4.97h33.47c1.65,0,2.83,1.16,2.83,2.81v.49s-3.65,20.22-3.65,20.22c-.33,1.98-1.65,2.98-3.81,3.32-6.46.82-16.57,1.98-32.64,1.98-19.39,0-37.12-6.97-37.12-28.66,0-2.65.33-5.46.82-8.44l9.11-52.01c5.79-33.47,25.67-37.12,49.03-37.12,16.08,0,26.19,1.16,32.31,1.98,1.83.16,2.65,1,2.65,2.65v.67s.04,0,.04,0Z"/>
  <path class="cls-1" d="M350.04,109.73l-3.65,20.71c-.33,1.83-1.65,3.14-3.47,3.14h-.33c-6.64-.49-25.34-2.16-37.27-2.16-4.63,0-9.44,1.49-9.44,6.95,0,2.32,1.65,3.81,7.28,7.13l20.22,11.93c11.93,6.95,16.57,16.08,16.57,27.68,0,30.97-26.01,43.58-54.17,43.58-13.58,0-24.18-1.83-32.64-4.3-1.49-.49-2.83-1.34-2.83-2.81v-.49s3.5-20.37,3.5-20.37c.33-1.83,1.83-3.32,3.81-3.32h.33c6.79.67,24.36,2.49,33.13,2.49,6.64,0,12.09-2.32,12.09-9.78,0-2.49-1.65-4.32-6.46-7.46l-21.38-14.07c-9.62-6.3-14.25-17.08-14.25-27.34,0-29.82,23.36-38.77,49.7-38.77,13.09,0,30.33,2.16,36.78,4.14,1.34.49,2.49,1.16,2.49,2.65v.49s0-.02,0-.02Z"/>
</svg>