<svg width="50" height="50" viewBox="0 0 50 50" fill="none" xmlns="http://www.w3.org/2000/svg">
<path d="M25.0001 4.25C13.5417 4.25 4.16675 13.6042 4.16675 25.125C4.16675 35.5417 11.7917 44.1875 21.7501 45.75V31.1667H16.4584V25.125H21.7501V20.5208C21.7501 15.2917 24.8542 12.4167 29.6251 12.4167C31.8959 12.4167 34.2709 12.8125 34.2709 12.8125V17.9583H31.6459C29.0626 17.9583 28.2501 19.5625 28.2501 21.2083V25.125H34.0417L33.1043 31.1667H28.2501V45.75C33.1593 44.9747 37.6297 42.4698 40.8541 38.6876C44.0785 34.9054 45.8446 30.0951 45.8334 25.125C45.8334 13.6042 36.4584 4.25 25.0001 4.25Z" fill="#083431"/>
</svg>
