<?xml version="1.0" encoding="UTF-8"?>
<svg id="Camada_1" data-name="Camada 1" xmlns="http://www.w3.org/2000/svg" viewBox="0 0 462.91 331.11">
  <defs>
    <style>
      .cls-1 {
        fill: #fff;
        stroke-width: 0px;
      }
    </style>
  </defs>
  <path class="cls-1" d="M231.37,141.81c-28.04,0-56.09-.01-84.14.04-1.62,0-2.15-.26-2.15-2.05.08-20.26.07-40.51.02-60.77,0-1.5.38-1.85,1.83-1.81,3.77.11,7.56.08,11.33.02,1.08-.02,1.87.29,2.68,1,22.96,19.99,45.96,39.93,68.9,59.95,1.37,1.2,2.08,1.27,3.51.02,22.84-20.04,45.75-40,68.62-59.99.76-.66,1.49-.99,2.52-.97,3.96.06,7.91.06,11.87,0,1.08-.02,1.38.26,1.38,1.36-.04,20.61-.05,41.22.01,61.83,0,1.71-.94,1.38-1.89,1.38h-84.5"/>
  <path class="cls-1" d="M206.16,62.52c-.27,1.38-.65,2.76-.77,4.15-.36,3.86.98,7.2,3.44,10.1,2.2,2.6,4.9,4.6,7.94,6.1,2.31,1.14,3.62.6,4.53-1.84.37-.98.63-2.02.83-3.06.6-3.17-.42-4.52-3.63-4.89-2.15-.25-2.6-.89-2.1-3.01.75-3.19,4.72-6.1,7.98-5.84.5.04.94.3,1.36-.35,1.03-1.59,2.73-1.97,4.46-2.13,6.98-.64,12.06,2.83,14.11,9.68,1.1,3.65,1.38,7.41,1.41,11.19,0,1.08.2,1.41,1.38,1.22,6.03-.93,8.71-5.15,10.25-10.42.88-3,1.21-6.12.94-9.26-.1-1.19,0-1.83,1.59-1.82,18.77.07,37.55.06,56.32.02,1.25,0,1.61.32,1.55,1.56-.11,2-.08,4.01,0,6.02.03.95-.17,1.34-1.24,1.32-11.79-.25-23.59-.46-35.38-.66-4.07-.07-8.14-.04-12.21-.17-1.24-.04-1.27.78-1.49,1.52-1.91,6.52-5.39,12.01-10.73,16.27-3.08,2.46-6.54,4.23-10.34,5.21-1.33.34-1.5.91-1.39,2.07.67,7.4,1.28,14.81,1.97,22.2.09,1-.08,1.62-.86,2.27-4.53,3.78-9.02,7.61-13.48,11.47-.72.62-1.14.68-1.87.01-4.62-4.21-9.27-8.39-13.95-12.54-.71-.63-.88-1.27-.82-2.16.57-7.47,1.07-14.94,1.66-22.41.09-1.04-.02-1.56-1.14-1.92-10.02-3.32-16.2-10.36-19.23-20.3-.4-1.3-.92-1.71-2.28-1.69-11.39.22-22.78.34-34.16.52-4.72.07-9.44.15-14.15.32-1.25.04-1.62-.3-1.55-1.55.11-2.06.06-4.13.02-6.2-.01-.77.1-1.16,1.03-1.16,19.89.03,39.79.03,59.69.04l.32.13Z"/>
  <path class="cls-1" d="M132.5,187.33c-.38-1.74-.64-3.5-1.37-5.12-.66-1.46-1.52-2.77-3.29-2.84-1.69-.06-2.61,1.18-3.36,2.5-1.46,2.57-1.92,5.43-2.18,8.32-.73,8.13-.89,16.25.84,24.3.36,1.69,1,3.27,2.13,4.6,1.34,1.57,3.03,1.91,4.73.75,2.21-1.51,3.73-3.38,3.56-6.41-.22-3.91-.06-3.97-3.98-3.92-1.28.02-1.73-.26-1.7-1.64.1-3.84.07-7.68.02-11.51-.01-1.04.23-1.45,1.37-1.43,3.42.08,6.85.08,10.27,0,1.14-.03,1.36.37,1.35,1.42-.04,9.09-.02,18.18-.03,27.27,0,.46.01,1-.2,1.37-1.74,3.02-3.5,6.06-6.19,8.34-4.89,4.15-11.88,2.96-15.24-2.58-3.03-5-4.16-10.61-4.91-16.3-1.29-9.75-1.27-19.53.02-29.28.75-5.63,1.98-11.15,5.03-16.07,2.87-4.64,7.95-6.28,13.06-4.32,2.19.84,3.5,2.54,4.53,4.51,1.86,3.55,2.61,7.43,3.19,11.35.46,3.07.41,3.08-2.46,4.42-1.54.72-3.1,1.42-4.66,2.12l-.54.16Z"/>
  <path class="cls-1" d="M171.7,190.89c-.2,6.94.38,15.38-.36,23.81-.49,5.55-1.47,10.97-4.06,16-1.66,3.23-4.22,5.11-7.85,5.1-4,0-7.38-1.34-9.31-5.23-2.49-5-3.46-10.37-3.92-15.86-.68-8.14-.26-16.28-.34-24.43-.07-7.85.01-15.71-.05-23.56,0-1.25.33-1.63,1.57-1.55,1.77.11,3.55.09,5.31,0,1.15-.06,1.54.28,1.52,1.46-.07,3.43-.03,6.85-.02,10.28.03,10.98.04,21.96.1,32.94.01,2.25.36,4.48,1.16,6.59.59,1.54,1.46,3.08,3.26,3.1,1.91.03,2.8-1.57,3.39-3.17.95-2.58,1.17-5.29,1.17-8.02,0-13.76.03-27.52-.04-41.27,0-1.61.43-2.04,1.97-1.91,1.64.14,3.31.11,4.96,0,1.23-.08,1.59.28,1.58,1.54-.06,7.56-.03,15.12-.03,24.17"/>
  <path class="cls-1" d="M331.83,199.93c0-11.04.03-22.08-.03-33.12-.01-1.35.36-1.65,1.67-1.64,6.37.07,12.75.07,19.12,0,1.36-.02,1.68.37,1.65,1.68-.09,3.95-.07,7.91,0,11.86.02,1.07-.25,1.41-1.37,1.39-3.71-.07-7.43.02-11.15-.06-1.18-.02-1.51.33-1.47,1.49.08,2.71.09,5.43,0,8.15-.04,1.14.35,1.36,1.4,1.34,3.42-.07,6.85.02,10.27-.05,1.07-.02,1.42.25,1.4,1.37-.07,3.83-.06,7.68,0,11.51.02,1.08-.28,1.43-1.38,1.41-3.42-.07-6.85.01-10.27-.05-1.06-.02-1.43.25-1.41,1.37.06,3.66.06,7.32,0,10.98-.02,1.06.37,1.27,1.33,1.26,3.84-.05,7.67.04,11.51-.05,1.38-.04,1.67.42,1.65,1.71-.08,4.19-.08,8.38,0,12.57.02,1.24-.33,1.58-1.57,1.57-6.61-.06-13.22-.07-19.83,0-1.27.01-1.53-.35-1.53-1.57.05-11.04.03-22.08.03-33.12"/>
  <path class="cls-1" d="M277.57,199.99c0-10.98.03-21.96-.03-32.94,0-1.41.26-1.91,1.79-1.89,6.26.09,12.51.09,18.77,0,1.52-.02,1.85.46,1.82,1.89-.1,3.84-.09,7.68,0,11.51.03,1.28-.4,1.57-1.6,1.54-3.6-.07-7.2.03-10.8-.06-1.27-.03-1.6.38-1.56,1.6.09,2.59.12,5.2,0,7.79-.07,1.42.46,1.63,1.7,1.6,3.31-.08,6.61.03,9.91-.05,1.12-.03,1.37.31,1.35,1.38-.06,3.84-.06,7.67,0,11.51.02,1.07-.22,1.42-1.35,1.4-3.42-.08-6.84,0-10.27-.05-.97-.02-1.35.24-1.33,1.28.05,3.66.07,7.32,0,10.98-.02,1.16.45,1.35,1.45,1.34,3.83-.04,7.67.02,11.51-.04,1.05-.01,1.43.21,1.42,1.35-.07,4.43-.05,8.86,0,13.28,0,.9-.22,1.2-1.17,1.2-6.78-.04-13.57-.06-20.36.01-1.3.01-1.23-.62-1.23-1.5.01-11.04,0-22.08,0-33.12"/>
  <path class="cls-1" d="M311.19,210.32c.26,2.6.4,5.01,1.06,7.35.26.91.61,1.78,1.11,2.58.63,1,1.44,1.85,2.65,1.79,1.37-.07,2.16-1.07,2.68-2.28,2.3-5.29.63-10.65-4.29-13.58-5.24-3.12-8.36-7.68-9.42-13.66-1.19-6.72-1.04-13.38.96-19.95.45-1.47,1.09-2.86,1.9-4.17,3.66-5.94,11.92-5.9,15.51.09,2.05,3.42,2.66,7.28,3.11,11.15.19,1.63,1.04,3.64.18,4.82-.85,1.19-3.05.74-4.64,1.03-2.9.54-2.87.49-3.33-2.32-.26-1.57-.46-3.17-1.34-4.55-.6-.94-1.37-1.65-2.58-1.54-1.24.1-1.82.99-2.16,2.05-.99,3.06-1.05,6.9,3.04,8.89,8.22,4,11.49,11.02,11.97,19.77.39,7.2,0,14.27-2.81,21.02-2.38,5.72-6.84,8.1-12.22,6.5-3.44-1.02-5.32-3.57-6.48-6.74-1.5-4.06-2.23-8.3-2.59-12.61v-.17c.05-1.39-.9-3.18.04-4.05.87-.81,2.67-.63,4.06-.87,1.16-.2,2.33-.36,3.6-.55"/>
  <path class="cls-1" d="M359.05,199.84c0-10.98.02-21.96-.04-32.93,0-1.4.36-1.85,1.76-1.75,1.7.12,3.42.11,5.13,0,1.25-.08,1.59.35,1.58,1.58-.05,8.62-.03,17.23-.03,25.84,0,7.68.03,15.35-.03,23.02,0,1.33.27,1.85,1.73,1.8,3.3-.12,6.61,0,9.91-.06,1.1-.02,1.4.32,1.38,1.4-.05,4.84-.06,9.68,0,14.51.01,1.15-.37,1.34-1.41,1.34-6.14-.05-12.27-.07-18.41.01-1.37.02-1.63-.38-1.62-1.67.05-11.04.03-22.07.03-33.1"/>
  <path class="cls-1" d="M263.17,199.85c0-10.98.03-21.95-.03-32.92,0-1.4.35-1.87,1.76-1.76,1.64.12,3.32.15,4.95,0,1.56-.14,1.81.47,1.79,1.88-.09,5.6-.04,11.21-.04,16.81,0,16.34-.02,32.69.04,49.03,0,1.38-.33,1.83-1.73,1.72-1.7-.12-3.42-.12-5.13,0-1.36.1-1.65-.36-1.64-1.66.06-11.03.03-22.06.03-33.1"/>
  <path class="cls-1" d="M185.87,200c0,10.91-.04,21.83.05,32.74.01,1.64-.48,1.99-1.96,1.87-1.52-.13-3.07-.12-4.6,0-1.48.12-2.01-.23-1.97-1.88.12-5.66.04-11.33.04-16.99,0-16.16.04-32.33-.04-48.49,0-1.78.5-2.23,2.16-2.08,1.58.14,3.19.11,4.77,0,1.24-.08,1.58.3,1.57,1.55-.07,6.01-.03,12.03-.03,18.05v15.22"/>
  <path class="cls-1" d="M286.92,85.27c-3.74,3.18-7.29,6.17-10.81,9.2-.62.53-.94.12-1.34-.22-3.56-3.08-7.12-6.18-10.7-9.24-.58-.5-.6-.86-.14-1.45,1.23-1.59,2.26-3.32,3.03-5.17.36-.87.76-.78,1.48-.49,6.05,2.44,12.12,4.84,18.48,7.36"/>
  <path class="cls-1" d="M299.59,74.51c-3.59,3.05-6.81,5.77-10.02,8.51-.45.38-.85.18-1.31.03-6.4-2.16-12.81-4.32-19.23-6.42-1.02-.33-1.1-.7-.77-1.63,1.11-3.12,1.06-3.08,4.39-2.79,8.79.78,17.59,1.51,26.93,2.3"/>
  <path class="cls-1" d="M249.62,116.92c-.45-3.69-.86-7.13-1.29-10.57-.37-3.04-.7-6.09-1.11-9.12-.14-1.01.05-1.57,1.11-1.96,1.54-.57,3.01-1.33,4.46-2.11.7-.37,1.01-.25,1.37.4,2.27,4.12,4.56,8.24,6.87,12.35.32.58.45.99-.17,1.5-3.7,3.09-7.36,6.23-11.25,9.52"/>
  <path class="cls-1" d="M214.08,116.18c-3.38-2.9-6.54-5.6-9.69-8.31-2.24-1.93-2.23-1.93-.74-4.52,1.82-3.16,3.66-6.3,5.41-9.5.52-.94.97-1.15,1.87-.54.63.42,1.33.74,2.03,1.06q3.37,1.56,2.96,5.27c-.59,5.38-1.19,10.76-1.83,16.54"/>
  <path class="cls-1" d="M178.53,84.51c5.72-2.29,11.13-4.44,16.52-6.66.85-.35,1.12-.09,1.43.63.78,1.79,1.75,3.48,2.95,5.01.52.67.44,1.03-.2,1.56-3.22,2.67-6.41,5.38-9.61,8.08-.42.35-.73.7-1.32.16-3.17-2.89-6.38-5.74-9.77-8.79"/>
  <path class="cls-1" d="M167.03,74.19c8.85-.75,17.24-1.45,25.63-2.2,1.24-.11,1.85.08,2.11,1.49.51,2.82.62,2.81-2.09,3.65-5.12,1.58-10.24,3.13-15.34,4.76-.96.3-1.6.2-2.34-.5-2.52-2.36-5.12-4.64-7.96-7.2"/>
  <path class="cls-1" d="M262.38,85.66l.72.9c3.04,3.21,6.07,6.43,9.16,9.61.62.63.76.98,0,1.61-2.34,1.9-4.63,3.85-6.9,5.83-.66.58-1.02.7-1.61-.14-2.54-3.62-5.16-7.19-7.76-10.77-.37-.51-.86-.96.03-1.54,2.13-1.4,4.03-3.08,5.78-4.93l.59-.55Z"/>
  <path class="cls-1" d="M207.89,91.98l-.43.64c-2.43,3.4-4.89,6.79-7.28,10.21-.52.74-.82.71-1.45.11-2.29-2.21-4.61-4.38-6.98-6.51-.66-.59-.63-.94-.03-1.53,2.93-2.82,5.81-5.69,8.73-8.52.29-.28.53-.88,1.1-.25,1.8,1.96,3.85,3.64,6.01,5.19l.32.65Z"/>
  <path class="cls-1" d="M147.12,258.98c.81-.75,1.54-1.34,2.49-1.59,2.02-.54,3.94.44,4.39,2.45.65,2.85.33,5.76.21,8.63-.06,1.36-1.54.45-2.35.66-.67.17-1.08-.08-1.06-.92.05-2.06.03-4.13,0-6.19,0-1-.19-1.95-1.48-1.98-1.31-.03-1.72.88-1.75,1.97-.05,1.71-.08,3.42,0,5.13.07,1.37-.05,2.12-1.82,2.09-1.66-.03-1.77-.7-1.7-1.99.09-1.71.05-3.42.01-5.13-.02-.97-.11-1.98-1.4-2.08-1.42-.1-1.85.9-1.9,2.04-.08,1.95-.11,3.9-.02,5.84.08,1.66-1.06,1.17-1.9,1.23-.84.06-1.59.15-1.54-1.19.1-3,.01-6.01.06-9.02,0-.45-.38-1.29.38-1.31.98-.03,2.24-.66,2.9.38.39.62.39.55.89.23,2.34-1.53,3.55-1.36,5.58.74"/>
  <path class="cls-1" d="M187.8,261.16c0-2.18.03-4.37-.01-6.54-.01-.83.08-1.3,1.12-1.27,3.01.07,6.01.07,9.02,0,1.17-.03,1.02.68.98,1.38-.03.69.34,1.61-.99,1.56-1.77-.07-3.54.06-5.3-.04-1.67-.1-1.17,1.05-1.21,1.88-.04.85-.3,1.85,1.23,1.65.99-.13,2,.02,3-.04,1.02-.06,1.57.06,1.57,1.37,0,1.39-.69,1.37-1.64,1.33-.77-.03-1.55.09-2.3-.03-1.62-.25-1.89.45-1.94,1.94-.06,1.66.52,1.98,1.99,1.87,1.58-.12,3.19.04,4.78-.05,1.14-.07,1.24.51,1.19,1.4-.04.8.23,1.65-1.15,1.62-3.06-.08-6.13-.06-9.2,0-1.01.02-1.16-.45-1.14-1.29.04-2.24,0-4.49,0-6.73"/>
  <path class="cls-1" d="M89.13,269.36c-2.57,0-4.74-.7-6.23-2.85-.47-.68-.45-1.11.43-1.4,1.15-.37,2.16-1.33,3.2.43.69,1.17,3.05,1.26,4.24.58.61-.35.98-.84.94-1.58-.04-.68-.41-1.1-1.03-1.29-1.07-.34-2.14-.66-3.22-.95-3.31-.9-4.54-2.3-4.29-4.88.25-2.64,2.13-4.2,5.35-4.31,1.99-.07,3.89.39,5.32,1.91.38.4,1.27,1.08.67,1.45-.83.51-1.79,1.89-3,.64-1.03-1.07-2.23-1.22-3.57-.99-.7.12-1.21.48-1.32,1.24-.13.86.34,1.38,1.07,1.61,1.18.37,2.4.6,3.59.95,3,.88,4.14,2.36,3.93,5.01-.2,2.48-1.85,3.99-4.76,4.34-.47.06-.94.06-1.33.08"/>
  <path class="cls-1" d="M256.59,258.73c.88-.83,1.86-1.43,3.1-1.47,2.08-.07,3.58,1.15,3.73,3.4.17,2.52.08,5.06.11,7.59.02,1.37-1.02.87-1.65.86-.68-.01-1.8.55-1.8-.91,0-1.94.02-3.89-.02-5.83-.02-1.16-.12-2.36-1.73-2.33-1.53.03-1.95,1.08-1.96,2.4,0,1.88-.07,3.77.02,5.65.07,1.47-.95,1.06-1.66,1.03-.74-.03-1.88.54-1.85-1.05.06-3,0-6.01.03-9.01,0-.6-.39-1.43.84-1.53,1.9-.16,2.45,0,2.84,1.2"/>
  <path class="cls-1" d="M356.88,269.38c-1.83-.07-3.26-.31-4.55-1.14-.66-.43-.82-.88-.21-1.34.51-.39.38-1.89,1.69-1.01,1.05.71,2.22,1.13,3.51.84.52-.11,1.07-.33,1.06-.99,0-.61-.53-.71-.98-.84-1.02-.28-2.07-.49-3.07-.83-1.53-.52-2.25-1.72-2.2-3.27.05-1.55.88-2.66,2.41-3.16,2.01-.66,3.97-.46,5.86.41.41.19,1.27.43.66,1.07-.5.53-.49,1.97-1.81,1.37-.82-.37-1.65-.67-2.54-.67-.53,0-1.12.12-1.24.76-.12.71.45.87.98,1.01.74.19,1.49.35,2.23.55,2.18.59,3.14,1.65,3.1,3.47-.03,1.79-1.11,3.02-3.15,3.51-.68.16-1.4.21-1.76.26"/>
  <path class="cls-1" d="M173.46,269.37c-1.49-.06-2.91-.3-4.21-1.12-.64-.41-.85-.83-.25-1.33.51-.42.41-1.87,1.69-1.05,1.01.65,2.09,1.12,3.33.89.58-.11,1.23-.23,1.24-1.01.02-.73-.65-.77-1.12-.91-.96-.29-1.95-.45-2.9-.76-1.54-.52-2.25-1.71-2.19-3.28.06-1.55.87-2.65,2.4-3.16,2.01-.67,3.96-.43,5.86.4.41.18,1.25.43.65,1.08-.5.53-.45,1.97-1.8,1.38-.82-.36-1.64-.71-2.54-.67-.52.02-1.13.11-1.24.76-.11.7.44.87.99.99.92.22,1.84.42,2.74.67,1.69.47,2.62,1.61,2.59,3.35-.04,1.71-.97,2.85-2.62,3.39-.86.28-1.73.36-2.62.37"/>
  <path class="cls-1" d="M108.19,269.44c-1.08-.09-2.13-.28-3.12-.67-1.79-.71-1.88-1.19-.68-2.7.45-.56.71-.49,1.23-.15,1.05.7,2.21,1.12,3.51.8.47-.11.92-.32.97-.89.06-.63-.43-.79-.89-.91-.91-.23-1.84-.4-2.74-.67-1.65-.5-2.63-1.64-2.58-3.38.05-1.71.99-2.82,2.68-3.31,1.91-.55,3.74-.3,5.52.46.48.21,1.34.47.64,1.21-.49.52-.49,1.96-1.84,1.23-.79-.43-1.65-.67-2.54-.63-.52.03-1.12.15-1.15.85-.03.59.44.76.93.88.8.19,1.61.38,2.4.59,2.05.57,3,1.65,3.02,3.38.01,1.78-1.07,3.07-3.08,3.56-.74.18-1.51.23-2.27.34"/>
  <path class="cls-1" d="M302.35,269.36c-1.43-.06-2.79-.33-4.04-1.1-.65-.4-.87-.84-.25-1.33.51-.41.39-1.89,1.72-1.03,1.11.72,2.32,1.18,3.68.77.46-.14.9-.37.87-.95-.03-.5-.4-.67-.83-.76-.92-.21-1.85-.39-2.74-.68-1.88-.6-2.71-1.73-2.63-3.5.08-1.78,1.07-2.75,2.73-3.24,1.66-.48,3.28-.35,4.85.26.57.22,1.82.21,1.25,1.35-.4.79-.8,2.18-2.27,1.15l-.66-.25c-.97-.25-2.28-.69-2.57.54-.28,1.18,1.17,1.05,1.93,1.22,3.31.74,4.55,1.87,4.31,4.11-.25,2.26-2.21,3.52-5.36,3.43"/>
  <path class="cls-1" d="M278.08,269.36c-2.87,0-4.82-1.5-5.52-4.25-.73-2.87.36-5.87,2.59-7.1,2.27-1.27,5.16-.93,6.81.9.36.39,1.51,1.01.6,1.55-.74.44-1.66,2.03-2.9.4-1.08-1.41-2.76-1.11-3.46.53-.38.9-.45,1.84-.3,2.78.16,1,.42,1.99,1.58,2.33,1.09.32,1.89-.08,2.61-.96,1.01-1.24,1.75.16,2.51.47.98.41.06,1-.21,1.35-1.07,1.41-2.58,1.97-4.31,1.99"/>
  <path class="cls-1" d="M116.44,263.72c0-.77-.01-1.53,0-2.3.01-.61.06-1.16-.85-1.14-1.07.02-.73-.86-.76-1.43-.04-.62-.19-1.39.88-1.29.69.07.7-.38.74-.89.04-.49-.3-1.18.26-1.45.83-.41,1.74-.78,2.66-.9.69-.09.45.67.44,1.06-.02,1.26-.25,2.52,1.79,2.23,1.08-.16.63.88.69,1.43.09.67.06,1.41-.93,1.25-1.48-.23-1.64.58-1.55,1.75.07.93,0,1.88.03,2.82.04,1.02.16,1.91,1.63,1.51.99-.27.73.78,1.01,1.25.31.52.34.96-.33,1.26-1.36.62-2.73.71-4.08.04-1.26-.62-1.64-1.75-1.63-3.08,0-.7,0-1.41,0-2.11"/>
  <path class="cls-1" d="M225.2,254.11c0,.86.05,1.51-.01,2.15-.1.96.19,1.47,1.24,1.29,1.11-.19,1.23.43,1.21,1.34-.02.86-.03,1.59-1.18,1.39-1.22-.21-1.32.47-1.28,1.43.07,1.18.02,2.36.02,3.53,0,.76.31,1.43,1.11,1.18,1.6-.51,1.36.87,1.62,1.54.37.95-.66.96-1.16,1.14-2.79,1-4.96-.54-5.03-3.52-.03-1.17.02-2.35-.01-3.53-.02-.78.4-1.75-1.11-1.86-.8-.06-.33-1.09-.41-1.68-.06-.45-.12-.99.63-.97.42.01.98,0,.87-.57-.42-2.13,1.3-2.1,2.51-2.58.26-.11.55-.17.99-.3"/>
  <path class="cls-1" d="M380.43,260.85c0,2.36-.07,4.72.03,7.08.06,1.29-.65,1.33-1.53,1.21-.79-.11-1.99.56-1.97-1.14.05-4.78.07-9.55,0-14.33-.03-1.67,1.08-1.14,1.91-1.22.97-.09,1.67-.04,1.61,1.33-.12,2.35-.04,4.72-.04,7.07"/>
  <path class="cls-1" d="M205.3,260.9c0,2.35-.08,4.71.03,7.06.06,1.52-.93,1.22-1.74,1.18-.75-.04-1.82.5-1.79-1.1.07-4.82.07-9.65,0-14.48-.02-1.61,1.05-1.05,1.79-1.09.82-.05,1.8-.33,1.74,1.19-.1,2.4-.03,4.82-.03,7.24"/>
  <path class="cls-1" d="M233.71,258.73c1.01-.95,2.01-1.65,3.37-1.35.62.14,1.27.45.81,1.16-.44.69.32,2.22-1.36,2.07-2.02-.19-2.93.6-2.99,2.69-.04,1.58-.05,3.18,0,4.77.06,1.57-1.09,1.03-1.84,1.07-.75.05-1.68.34-1.64-1.08.08-2.94-.01-5.89.05-8.83.01-.55-.58-1.69.62-1.61,1.02.08,2.59-1.04,2.96,1.12"/>
  <path class="cls-1" d="M101.27,263.4c0,1.53-.08,3.06.02,4.59.1,1.54-.94,1.16-1.75,1.16-.83,0-1.8.33-1.76-1.19.08-3.12.04-6.24.02-9.36-.01-1.74,1.28-.89,2.04-1.03.74-.13,1.53-.21,1.45,1.05-.1,1.58-.02,3.17-.02,4.77"/>
  <path class="cls-1" d="M266.45,263.29c0-1.47.1-2.94-.02-4.4-.16-1.76,1.04-1.25,1.94-1.33.99-.09,1.61,0,1.56,1.34-.11,2.99-.11,6,0,8.99.05,1.44-.75,1.31-1.65,1.27-.88-.03-1.97.34-1.85-1.28.11-1.52.02-3.06.02-4.59"/>
  <path class="cls-1" d="M333.25,263.36c0-1.59.07-3.19-.02-4.78-.08-1.52.99-1.01,1.67-.99.72.02,1.87-.59,1.84,1.04-.06,3.13-.07,6.26,0,9.39.04,1.74-1.2,1.02-1.98,1.12-.83.11-1.65.17-1.54-1.17.12-1.53.03-3.07.03-4.61"/>
  <path class="cls-1" d="M101.76,155.62c-1.68,1.86-3.12,3.56-4.68,5.14-1.05,1.07-2.45.4-3.7.48l-.23-.52.27-.66q1.88-4.94,8.34-4.45"/>
  <path class="cls-1" d="M240.72,256.15c1.66-1.21,1.42-3.54,3.73-3.72,2.63-.2,2.45,2.41,4.14,3.66-1.49.2-2.52.47-3.35-.6-.31-.41-.74-.68-1.12-.1-.73,1.09-1.77.91-3.4.75"/>
  <path class="cls-1" d="M334.82,252.35c1.31.08,2.07.7,2.1,1.85.03,1.24-.79,1.96-2,1.96-1.13,0-1.9-.65-1.95-1.83-.04-1.31.83-1.82,1.85-1.98"/>
  <path class="cls-1" d="M99.61,252.34c1.12.15,1.87.7,1.87,1.89,0,1.29-.81,1.94-2.01,1.91-1.1-.03-1.86-.63-1.88-1.86,0-1.35.85-1.79,2.01-1.94"/>
  <path class="cls-1" d="M268.31,252.35c1.15.19,1.95.76,1.86,2.06-.08,1.2-.91,1.78-2,1.74-1.18-.05-1.98-.75-1.9-2.04.08-1.19.89-1.68,2.04-1.76"/>
  <path class="cls-1" d="M257.28,181.67c-.6-4.27-1.69-8.43-3.96-12.19-1.74-2.88-4.26-4.3-7.62-4.28-3.42.02-6.85.07-10.27-.03-1.38-.04-1.77.32-1.76,1.73.06,10.98.03,21.96.03,32.94s.02,22.2-.02,33.3c0,1.14.26,1.49,1.44,1.47,3.42-.08,6.85-.02,10.27-.03,3.62,0,6.32-1.62,8.14-4.72,1.84-3.15,2.91-6.59,3.53-10.13,2.2-12.67,2-25.37.22-38.06M249.3,213.07c-.2,1.1-.49,2.18-.97,3.2-.93,1.97-3.67,3.13-5.71,2.42-.85-.3-.46-.99-.47-1.49-.03-5.78-.02-11.57-.02-17.35s.04-11.56-.03-17.34c-.02-1.28.4-1.57,1.59-1.52,2.5.11,3.95,1.1,4.91,3.81,1.16,3.26,1.33,6.69,1.4,10.11.11,6.06.38,12.14-.71,18.16Z"/>
  <path class="cls-1" d="M111.7,233.05c-1.19-7.68-2.29-15.39-3.41-23.09-2.12-14.52-4.26-29.04-6.35-43.57-.14-1.01-.57-1.24-1.49-1.21-2.07.06-4.14.11-6.19-.01-1.37-.08-1.76.38-1.95,1.72-1.9,13.36-3.89,26.71-5.84,40.07-1.34,9.15-2.65,18.3-4.01,27.62,2.48,0,4.89-.06,7.3.03,1.12.04,1.39-.41,1.49-1.4.29-2.93.69-5.86.97-8.79.09-.94.37-1.31,1.38-1.28,2.3.08,4.6.08,6.9,0,1.13-.04,1.36.45,1.45,1.44.28,2.93.72,5.85.98,8.79.09,1.03.49,1.25,1.41,1.22,2.01-.06,4.02-.09,6.02,0,1.27.06,1.56-.25,1.35-1.55M98.5,208.1c-4.46,0-4.4.05-3.83-4.39.7-5.38,1.29-10.78,1.93-16.16.11-.93.14-1.87.6-2.85.87,7.38,1.72,14.64,2.62,21.9.14,1.15-.1,1.49-1.32,1.5Z"/>
  <path class="cls-1" d="M218.35,233.47c-3.14-21.23-6.25-42.46-9.37-63.69-.21-1.45-.02-3.31-.84-4.23-.96-1.05-2.9-.16-4.12-.36-1.22,0-2.17.07-3.1-.02-1.29-.12-1.81.24-1.99,1.66-.75,5.91-1.68,11.79-2.55,17.68-2.4,16.33-4.79,32.66-7.21,48.99-.14.9.11,1.11.97,1.08,2.06-.05,4.14-.08,6.2.01,1.09.05,1.41-.34,1.51-1.37.27-2.93.67-5.85.96-8.79.09-.9.32-1.34,1.36-1.3,2.3.08,4.6.08,6.9,0,1.09-.04,1.4.37,1.5,1.4.28,2.99.71,5.98.99,8.97.08.83.34,1.1,1.17,1.08,2.24-.06,4.49-.07,6.73,0,.95.03,1.03-.3.91-1.12M204.93,208.11c-4.29-.07-4.23,0-3.7-4.18.72-5.6,1.34-11.21,2.02-16.82.09-.74.24-1.47.37-2.2l.2.03c.87,7.18,1.7,14.35,2.62,21.51.17,1.34-.16,1.67-1.51,1.65Z"/>
  <path class="cls-1" d="M325.35,253.7c-2.55-.68-5.16-.2-7.74-.34-.88-.05-.71.58-.71,1.08,0,2.3,0,4.6,0,6.9v6.72c0,.53-.08,1.12.74,1.09,2.58-.08,5.19.29,7.74-.39,3.41-.92,5.26-3.65,5.23-7.64-.03-3.94-1.83-6.5-5.26-7.41M325.63,265.07c-.75.96-3.82,1.56-4.8,1.09-.52-.25-.32-.7-.33-1.07-.02-1.36,0-2.71,0-4.07,0-1.18.09-2.36-.03-3.53-.11-1.17.37-1.33,1.4-1.32,1.94.03,3.7.3,4.48,2.38.84,2.27.84,4.52-.71,6.52Z"/>
  <path class="cls-1" d="M166.65,267.23c.13-.75.03-1.53.03-2.3,0-.95.03-1.89,0-2.83-.12-3.49-1.78-5.01-5.28-4.83-1.25.07-2.47.32-3.56.95-.46.27-1.51.4-.81,1.32.46.61.56,2.04,1.98,1.19.94-.56,1.97-.79,3.06-.57.66.13,1.02.63,1.06,1.26.05.81-.62.71-1.13.74-1.19.05-2.35.26-3.44.74-1.58.69-2.4,2.21-2.03,3.9.37,1.67,1.52,2.43,3.18,2.55,1.04.08,1.98-.15,2.85-.74.32-.21.55-.59.96.01.74,1.1,1.97.59,2.87.43.98-.17.17-1.19.28-1.82M163.19,265.21c-.1,1.08-.89,1.59-2,1.65-.71.04-1.38-.27-1.29-1.08.17-1.55,1.51-1.34,2.57-1.54.75-.14.74.33.72.98Z"/>
  <path class="cls-1" d="M371.53,257.68c-2.61-1.07-5.67-.14-7.17,2.19-1.58,2.46-1.21,6.14.81,7.98,2.29,2.09,6.48,2.01,8.53-.18.27-.29.98-.81.38-1.07-.91-.37-1.65-1.74-3.03-.49-1.64,1.49-3.64.54-4.03-1.82h3.19c1.06,0,2.12.01,3.18,0,.54-.01,1.14.19,1.27-.77.31-2.29-1.08-4.99-3.13-5.83M371.12,261.54c-.16,1.37-1.45.24-2.11.73-.6-.43-1.78.54-1.85-.6-.08-1.2.97-1.83,2.14-1.84,1.07,0,1.94.67,1.82,1.71Z"/>
  <path class="cls-1" d="M244.83,257.26c-3.54-.07-6.13,2.52-6.11,6.12.02,3.48,2.44,5.96,5.85,5.98,3.48.02,6-2.48,6.05-6.02.05-3.41-2.44-6.02-5.8-6.08M244.68,266.62c-1.57.01-2.45-1.24-2.42-3.41.04-2.14.86-3.2,2.45-3.17,1.5.02,2.39,1.25,2.38,3.29,0,1.99-.95,3.29-2.42,3.3Z"/>
  <path class="cls-1" d="M290.37,257.26c-3.52-.03-6.05,2.59-6,6.22.04,3.48,2.49,5.91,5.94,5.89,3.47-.02,5.96-2.59,5.94-6.11-.03-3.47-2.48-5.97-5.87-5.99M291.34,266.37c-.96.49-1.96.37-2.72-.49-.98-1.1-.99-4.04,0-5.14.77-.87,1.79-.95,2.73-.48,1.22.61,1.28,1.86,1.33,3.09-.08,1.14-.1,2.39-1.33,3.02Z"/>
  <path class="cls-1" d="M347.29,257.73c-2.66-1.15-5.86-.17-7.31,2.21-1.61,2.66-1.03,6.44,1.24,8.22,2.28,1.78,6.27,1.57,8.14-.46.27-.29.97-.83.41-1.09-.89-.41-1.64-1.81-2.99-.51-1.21,1.16-3.11.78-3.82-.53-.39-.73-.55-1.37.69-1.3.94.05,1.89.02,2.83.02.94,0,1.89,0,2.83,0,.47,0,.88.05,1.02-.64.43-2.12-1.04-5.06-3.04-5.91M346.78,261.53c-.14,1.43-1.43.2-2.08.76-.57-.53-1.87.59-1.86-.78,0-1.1,1.02-1.7,2.11-1.69,1.04,0,1.94.63,1.83,1.71Z"/>
  <path class="cls-1" d="M213.89,257.27c-3.46-.21-5.96,2.12-6.22,5.8-.17,2.42,1.1,4.73,3.13,5.68,2.3,1.08,5.3.73,6.96-.86.35-.33.95-.64.7-1.27-.27-.67-2.36-1.02-3-.56-1.33.98-2.76.93-3.65-.11-.31-.37-.6-.79-.48-1.27.16-.67.77-.35,1.19-.38.82-.05,1.65-.01,2.48-.02,1,0,2-.02,3.01,0,.56.02.8-.15.9-.77.49-3.21-1.77-6.05-5.01-6.24M215.4,261.61c-.13,1.16-1.34.23-1.98.66-.63-.44-1.87.53-1.98-.66-.1-1.13.96-1.73,2.02-1.78,1.13-.05,2.08.66,1.95,1.78Z"/>
  <path class="cls-1" d="M128.22,264.27c.94.04,1.88,0,2.82,0s1.89-.06,2.82.01c.95.08,1.21-.3,1.2-1.21-.03-3.19-1.73-5.36-4.58-5.77-3.01-.43-5.62,1.28-6.44,4.23-.76,2.7.19,5.56,2.28,6.89,2.26,1.44,5.72,1.2,7.57-.56.34-.33.95-.64.69-1.25-.27-.65-2.4-1.01-2.99-.57-1.5,1.12-3.43.81-4.05-.67-.28-.65-.28-1.14.66-1.11M129.58,259.82c1.18-.04,2.08.7,1.96,1.8-.13,1.15-1.36.21-2,.63-.66-.42-1.91.5-2-.63-.08-1.05.92-1.77,2.04-1.8Z"/>
</svg>