<?xml version="1.0" encoding="UTF-8"?>
<svg id="Camada_1" data-name="Camada 1" xmlns="http://www.w3.org/2000/svg" viewBox="0 0 462.91 331.11">
  <defs>
    <style>
      .cls-1 {
        fill: #fff;
        stroke-width: 0px;
      }
    </style>
  </defs>
  <g>
    <path class="cls-1" d="M29.92,187.19c-3.38-3.38-6.47-6.47-9.57-9.57-.93-.93-.94-1.86,0-2.8.44-.44.88-.9,1.32-1.34,19.11-19.03,38.21-38.07,57.32-57.1,2.45-2.44,2.46-2.44,4.82-.09,19.17,19.1,38.34,38.19,57.51,57.3,2.62,2.61,2.62,2.66-.03,5.29-2.72,2.71-5.44,5.4-8.33,8.26-.97-.91-1.76-1.61-2.5-2.35-15.49-15.43-30.98-30.86-46.47-46.28q-2.54-2.53-5.01-.07c-15.49,15.43-30.97,30.86-46.46,46.29-.75.75-1.53,1.46-2.59,2.48Z"/>
    <path class="cls-1" d="M50.74,207.88c-3.5-3.62-6.7-6.98-9.96-10.28-.83-.84-.73-1.54-.02-2.31.37-.39.75-.77,1.13-1.15,12.44-12.39,24.87-24.78,37.31-37.17,2.23-2.22,2.26-2.22,4.44-.05,12.44,12.39,24.88,24.78,37.31,37.17,2.25,2.24,2.25,2.27.09,4.42-2.97,2.96-5.95,5.9-9.17,9.08-10.13-10.31-20.07-20.42-30.11-30.63-10.44,10.4-20.56,20.48-31.02,30.91Z"/>
    <path class="cls-1" d="M101.24,216.57h-40.13c.66-.79,1-1.25,1.39-1.65,5.55-5.71,11.1-11.43,16.68-17.11,2.22-2.27,2.27-2.25,4.43-.09,5.21,5.18,10.41,10.36,15.6,15.56.86.86,1.58,1.85,2.37,2.78l-.34.52Z"/>
  </g>
  <g>
    <path class="cls-1" d="M210.68,121.11c.98.83,2.33.84,3.37,1.56.87.6,1.91,1,2.4,2.15-.55.91-1.32,1.63-2.2,2.22-4.86-3.09-9.14-3.01-11.92.18-2.66,3.05-2.6,8.16.12,11.13,2.82,3.08,7.18,3.11,11.73.03.93.5,1.62,1.29,2.43,2.4-2.9,2.85-6.34,3.9-10.25,3.39-5.54-.73-9.34-4.74-9.8-10.16-.52-6.1,2.43-10.63,8.06-12.36.43-.13.87-.2,1.21-.54h4.86Z"/>
    <path class="cls-1" d="M214.76,155.82c.84-.37,1.57-.25,2.28-.26,9.98,0,19.96,0,29.93,0,3.46,0,6.82.53,9.97,1.96,5.18,2.35,8.73,6.12,9.17,12,.44,5.94-1.91,10.67-7.03,13.9-.23.14-.44.3-.76.53.6.88,1.6,1.09,2.38,1.58,4.87,3.05,7.96,7.24,8.24,13.13.27,5.83-2.34,10.19-7.18,13.31-3.41,2.2-7.23,3.38-11.22,3.43-11.86.15-23.72.05-35.56.05-.54-1.98-.74-54.44-.23-59.63ZM231.45,201.4c5.25-.08,10.25.19,15.25-.19.99-.07,1.92-.45,2.76-1,2.75-1.81,2.88-5.24.26-7.23-1.27-.96-2.75-1.31-4.3-1.31-4.22-.01-8.44,0-12.66,0-.44,0-.91-.02-1.31.58v9.14ZM231.45,178.76c4.41,0,8.61.03,12.81-.03.68-.01,1.39-.36,2.03-.68,1.56-.79,2.57-2.06,2.53-3.83-.04-1.76-1.09-3-2.66-3.76-1.15-.55-2.38-.76-3.66-.75-3.05.02-6.11,0-9.17.02-.6,0-1.27-.2-1.91.56-.11,2.67-.15,5.5.03,8.48Z"/>
    <path class="cls-1" d="M159.69,155.7h47.88v14.88h-30.98c-.41,2.33-.29,4.36-.12,6.7h28.21c.35,2.66.14,5.06.18,7.45.04,2.42,0,4.84,0,7.54-3.24.3-6.36.1-9.46.14-3.06.04-6.11,0-9.17,0h-9.75c-.28,2.68-.09,5.22-.13,7.97h30.87c.56,1.94.7,11.01.27,14.99h-47.6c-.52-1.9-.72-54.52-.2-59.68Z"/>
    <path class="cls-1" d="M328.8,185.39c.04-16.87,14.35-30.98,31.31-30.88,16.81.1,30.82,14.28,30.75,31.14-.07,16.81-14.25,30.95-31.01,30.92-16.89-.03-31.09-14.29-31.05-31.18ZM381.88,185.2c.13-2.78-.56-5.74-1.73-8.6-4.06-9.9-14.4-15.71-24.29-13.65-8.89,1.85-15.87,9.06-17.69,18.28-1.75,8.86,2.21,18.41,9.81,23.53,4.5,3.03,9.44,4.4,14.84,3.54,11.05-1.76,19.05-11.37,19.06-23.09Z"/>
    <path class="cls-1" d="M285.03,194.94v20.38h-8.41c-.53-1.8-.75-54.52-.22-59.36.46-.58,1.14-.39,1.74-.39,8-.01,16-.03,24,0,4.5.02,8.71,1.17,12.55,3.54,11.96,7.39,11.95,24.54-.02,31.92-3.84,2.37-8.05,3.5-12.55,3.53-4.67.03-9.35,0-14.02.02-.88,0-1.79-.16-3.06.34ZM285.13,186.48c6.25-.08,12.25.25,18.25-.21,2.05-.16,4.03-.83,5.87-1.88,3.6-2.06,5.47-5.17,5.49-9.26.02-4.21-1.91-7.4-5.64-9.44-2.67-1.46-5.57-1.99-8.57-2-4.59-.03-9.17-.01-13.76,0-.52,0-1.09-.12-1.63.47v22.33Z"/>
    <path class="cls-1" d="M396.98,206.68c1.61-1.98,3.3-4.05,5.03-6.18,1.3,1.04,2.46,2.04,3.68,2.94,5.43,3.99,11.5,5.8,18.25,5.23,2.46-.21,4.75-.92,6.81-2.33,4.4-3,5.6-10.2-.69-13.49-3.06-1.6-6.37-2.43-9.69-3.23-3.24-.77-6.47-1.54-9.58-2.75-1.25-.49-2.51-1.01-3.69-1.64-8.55-4.57-10.75-15.24-4.74-23.06,3.49-4.54,8.29-6.86,13.85-7.5,9.33-1.09,17.61,1.51,24.77,7.61.2.17.34.41.58.71-1.57,2.06-3.14,4.11-4.77,6.25-.99-.32-1.56-1.04-2.25-1.56-4.66-3.49-9.77-5.71-15.71-5.53-3.06.09-5.79,1.09-8.12,3.15-3.41,3.02-4.47,9.49,1.69,12.49,3.26,1.59,6.75,2.44,10.24,3.3,2.97.72,5.93,1.46,8.78,2.6,1,.4,1.98.85,2.96,1.3,12.67,5.83,10.54,22.23,1.39,27.83-4.46,2.73-9.31,3.72-14.43,3.7-8.86-.04-16.79-2.69-23.5-8.63-.27-.24-.52-.5-.76-.76-.05-.06-.05-.17-.11-.43Z"/>
    <path class="cls-1" d="M261.01,121.69c4.27.17,8.39-.46,12.46.41,5.49,1.17,8.64,5.16,8.59,10.73-.05,5.44-3.19,9.32-8.58,10.48-4.07.87-8.2.24-12.25.41-.62-2-.79-18.14-.22-22.03ZM264.74,140.04c2.6.5,6.18.46,8.08-.07,3.3-.92,5.32-3.62,5.35-7.17.03-3.58-1.9-6.38-5.18-7.28-2.7-.74-5.45-.6-8.25-.3v14.81Z"/>
    <path class="cls-1" d="M307.27,143.37v-21.67c4.57.15,9.13-.58,13.6.61,4.78,1.27,7.62,5.33,7.6,10.47-.03,5.12-2.96,9.08-7.73,10.37-1.38.37-2.79.63-4.24.6-2.87-.06-5.73-.04-8.6-.07-.16,0-.31-.15-.62-.3ZM311.19,125.16v15.11c2.66.15,5.14.33,7.61-.22,3.66-.82,5.79-3.54,5.79-7.34,0-3.79-2.12-6.51-5.79-7.33-2.46-.55-4.95-.38-7.6-.22Z"/>
    <path class="cls-1" d="M182.67,121.8c1.45-.15,2.61-.19,4.04.05,3.2,7.12,6.45,14.35,9.75,21.7-1.46.28-2.7.22-4.03.07-.75-1.52-1.5-3.04-2.28-4.63h-10.86c-1.1,1.25-1.38,3-2.37,4.53-1.18.47-2.48.09-4.06.23,3.35-7.5,6.56-14.69,9.8-21.95ZM184.55,125.89c-1.36,3.42-2.85,6.39-3.87,9.85,2.81-.12,5.29.16,8.07-.21-1.38-3.21-2.37-6.4-4.2-9.64Z"/>
    <path class="cls-1" d="M305.46,143.53c-1.44.33-2.67.21-4,.12-.76-1.53-1.5-3.04-2.29-4.65h-11.03c-.71,1.5-1.39,2.95-2.12,4.5-1.24.4-2.54.26-4.06.09,3.27-7.32,6.48-14.5,9.69-21.69,1.3-.35,2.54-.19,4.04-.12,3.23,7.17,6.48,14.41,9.78,21.76ZM297.82,135.63c-1.43-3.38-2.5-6.51-4.25-9.84-1.44,3.55-2.68,6.58-3.98,9.79,2.8.24,5.27.16,8.24.05Z"/>
    <path class="cls-1" d="M332.08,121.84h15.5c.29.9.22,1.77.05,2.96h-11.45c-.6,2.12-.28,3.95-.31,6.03h10.19c.68,1.08.35,1.96.41,3.1-3.46.41-6.86-.02-10.33.27-.64,1.96-.14,3.92-.35,6.15,4.13.33,8.14-.02,12.2.21.37,1.06.26,1.98.13,3.02h-16.05v-21.74Z"/>
    <path class="cls-1" d="M219.36,121.81h3.4c.69.57.47,1.34.47,2.02.03,3.05,0,6.1.02,9.15,0,.89.03,1.8.16,2.68.63,4.14,3.92,6.14,7.87,4.77,1.64-.57,2.69-1.76,3.12-3.44.33-1.31.43-2.65.42-4-.01-3.5.03-7,.06-10.5,0-.16.12-.32.22-.6,1.06-.39,2.18-.14,3.45-.17,0,5,.43,9.87-.1,14.62-.81,7.27-9.94,10.61-15.75,6.05-2.39-1.88-3.22-4.51-3.31-7.36-.13-4.3-.03-8.61-.03-13.22Z"/>
    <path class="cls-1" d="M173.78,121.87c.38,1.02.21,1.88.1,3.05h-11.67v6.92h10.07c.67,1.15.44,2.1.35,3.19-3.43.62-6.84-.02-10.48.43v8.09c-1.41.26-2.52.23-3.81.06v-21.74h15.44Z"/>
    <path class="cls-1" d="M257.88,140.31c.42,1.4.33,2.26.18,3.28h-14.96v-21.57c1.01-.62,2.17-.25,3.58-.27v18.56h11.2Z"/>
    <path class="cls-1" d="M356.67,150.29c3.65-4.55,6.94-8.65,10.3-12.83,2.72.55,5.33,1.08,7.96,1.61-.15,1.01-.99,1.32-1.56,1.84-2.72,2.47-5.56,4.81-8.17,7.38-1.61,1.58-3.32,2.28-5.52,2.01-.79-.1-1.6-.02-3-.02Z"/>
  </g>
</svg>