<?xml version="1.0" standalone="no"?>
<!DOCTYPE svg PUBLIC "-//W3C//DTD SVG 20010904//EN"
 "http://www.w3.org/TR/2001/REC-SVG-20010904/DTD/svg10.dtd">
<svg version="1.0" xmlns="http://www.w3.org/2000/svg"
 width="133.000000pt" height="123.000000pt" viewBox="0 0 133.000000 123.000000"
 preserveAspectRatio="xMidYMid meet">

<g transform="translate(0.000000,123.000000) scale(0.100000,-0.100000)"
fill="#000000" stroke="none">
<path d="M445 1220 c-72 -13 -133 -38 -186 -77 -62 -44 -119 -63 -190 -63 -48
0 -59 -3 -64 -19 -8 -26 26 -92 65 -124 29 -25 68 -43 75 -35 2 2 0 29 -4 61
l-8 58 29 -27 c40 -39 44 -79 18 -158 -28 -83 -23 -149 17 -232 l28 -59 3 43
c3 36 8 46 34 62 31 19 134 38 144 27 3 -3 -12 -15 -33 -26 -58 -29 -66 -44
-64 -109 2 -65 27 -125 70 -166 26 -25 31 -26 52 -15 13 8 61 16 107 19 104 8
119 20 72 62 -19 17 -59 52 -88 78 l-53 47 4 74 4 74 -37 -3 c-51 -5 -94 19
-136 78 -19 27 -44 50 -55 52 -29 4 -27 22 5 33 23 8 49 2 142 -30 110 -38
114 -39 127 -20 14 18 15 17 32 -8 11 -17 15 -36 11 -52 -4 -16 -1 -34 9 -48
8 -12 15 -30 15 -40 0 -17 -2 -17 -30 3 -26 18 -31 19 -36 6 -3 -8 1 -25 10
-38 21 -30 20 -37 -5 -31 -16 5 -20 2 -17 -13 4 -24 120 -66 168 -60 53 6 152
46 147 59 -2 7 -14 12 -26 11 -25 -1 -27 9 -6 26 19 16 20 50 1 50 -7 0 -19
-7 -26 -15 -7 -8 -17 -15 -22 -15 -12 0 0 40 19 62 11 13 12 21 3 37 -8 16 -7
28 5 51 18 34 23 36 40 14 11 -15 20 -14 101 14 116 40 160 48 179 32 20 -16
19 -34 -1 -26 -10 4 -24 -4 -37 -21 -12 -14 -41 -46 -64 -71 -40 -42 -45 -44
-91 -40 l-48 3 8 -55 c11 -80 -2 -106 -87 -175 -41 -33 -75 -66 -75 -73 0 -19
45 -32 113 -32 42 0 70 -5 87 -17 23 -16 24 -16 65 29 44 49 65 102 65 163 0
30 -7 44 -36 71 -19 19 -42 34 -50 34 -8 0 -14 5 -14 11 0 16 87 5 133 -17 35
-17 37 -20 38 -68 l1 -51 34 71 c40 82 47 163 20 229 -23 53 -21 116 5 149 11
14 24 26 28 26 4 0 4 -25 1 -55 -7 -66 5 -71 67 -26 43 31 76 89 71 124 -3 20
-10 23 -78 28 -77 5 -106 16 -195 75 -96 63 -148 71 -390 61 -16 -1 -61 2
-100 5 -38 4 -92 2 -120 -2z"/>
<path d="M350 790 c21 -40 86 -54 111 -24 12 15 10 16 -28 10 -36 -7 -43 -5
-53 13 -6 12 -17 21 -26 21 -12 0 -12 -4 -4 -20z"/>
<path d="M950 790 c-9 -17 -17 -20 -46 -14 -20 4 -34 2 -34 -4 0 -12 24 -22
54 -22 21 0 66 37 66 53 0 16 -30 6 -40 -13z"/>
<path d="M640 364 c-14 -7 -41 -16 -61 -19 -32 -5 -36 -8 -31 -30 5 -29 19
-33 24 -8 3 15 16 18 95 18 84 1 92 -1 97 -19 5 -18 8 -19 16 -6 18 27 11 39
-27 46 -21 3 -48 12 -60 20 -12 8 -24 14 -25 13 -2 0 -14 -7 -28 -15z"/>
<path d="M470 329 c0 -18 40 -79 52 -79 6 0 8 10 4 23 -3 12 -6 32 -6 45 0 17
-6 22 -25 22 -14 0 -25 -5 -25 -11z"/>
<path d="M814 316 c-3 -13 -4 -35 -2 -47 3 -22 5 -21 31 16 33 49 34 55 2 55
-18 0 -26 -7 -31 -24z"/>
<path d="M530 160 c0 -45 106 -80 181 -60 52 14 79 36 79 63 0 16 -2 17 -16 6
-8 -7 -25 -14 -37 -15 -12 -1 -38 -5 -58 -9 -25 -5 -45 -2 -67 9 -22 11 -33
13 -38 5 -5 -8 -10 -6 -16 5 -12 22 -28 20 -28 -4z"/>
<path d="M484 137 c-19 -51 39 -107 131 -128 43 -9 61 -9 108 5 71 21 117 58
117 95 0 39 -10 44 -32 15 -63 -79 -230 -80 -292 -2 -21 28 -26 30 -32 15z"/>
</g>
</svg>
