<?xml version="1.0" encoding="UTF-8"?>
<svg id="Camada_1" data-name="Camada 1" xmlns="http://www.w3.org/2000/svg" viewBox="0 0 462.91 331.11">
  <defs>
    <style>
      .cls-1, .cls-2 {
        fill: #fff;
        stroke-width: 0px;
      }

      .cls-2 {
        fill-rule: evenodd;
      }
    </style>
  </defs>
  <path class="cls-1" d="M136.6,153.89c-5.4,0-7.32-2.1-7.32-6.03v-10.11c0-3.93,1.92-6.03,7.32-6.03h19.96v4.35h-19.98c-1.95,0-2.82.63-2.82,1.86v9.76c0,1.23.87,1.86,2.82,1.86h20.05v4.35h-20.02Z"/>
  <path class="cls-1" d="M161.6,153.88v-14.64c0-4.83,2.82-7.53,8.55-7.53h10.23c5.73,0,8.55,2.7,8.55,7.53v14.64h-4.35v-7.08h-18.64v7.08h-4.35ZM165.95,142.75h18.64v-3.51c0-2.13-.96-3.18-4.23-3.18h-10.17c-3.27,0-4.23,1.05-4.23,3.18v3.51Z"/>
  <path class="cls-1" d="M193.92,153.89v-4.35h19.21c1.95,0,2.82-.63,2.82-1.86v-2.28c0-1.23-.87-1.86-2.82-1.86h-12.78c-4.29,0-6.42-1.59-6.42-4.77v-2.79c0-2.85,2.13-4.26,6.36-4.26h19.23v4.35h-19.39c-1.32,0-1.71.24-1.71.81v1.32c0,.72.39.99,1.74.99h12.93c5.4,0,7.32,2.1,7.32,6.03v2.64c0,3.93-1.92,6.03-7.32,6.03h-19.18Z"/>
  <path class="cls-1" d="M225.41,153.88v-14.64c0-4.83,2.82-7.53,8.55-7.53h10.24c5.73,0,8.55,2.7,8.55,7.53v14.64h-4.35v-7.08h-18.64v7.08h-4.35ZM229.76,142.75h18.64v-3.51c0-2.13-.96-3.18-4.23-3.18h-10.17c-3.27,0-4.24,1.05-4.24,3.18v3.51Z"/>
  <path class="cls-1" d="M274.03,153.89v-22.18h19.98c5.4,0,7.32,2.1,7.32,6.03v10.11c0,3.93-1.92,6.03-7.32,6.03h-19.98ZM278.38,149.53h15.66c1.95,0,2.82-.63,2.82-1.86v-9.75c0-1.23-.87-1.86-2.82-1.86h-15.66v13.47Z"/>
  <path class="cls-1" d="M313.62,153.88c-5.4,0-7.32-2.1-7.32-6.03v-10.11c0-3.93,1.92-6.03,7.32-6.03h12.69c5.4,0,7.32,2.1,7.32,6.03v10.11c0,3.93-1.92,6.03-7.32,6.03h-12.69ZM310.77,147.67c0,1.23.87,1.86,2.82,1.86h12.75c1.95,0,2.82-.63,2.82-1.86v-9.75c0-1.23-.87-1.86-2.82-1.86h-12.75c-1.95,0-2.82.63-2.82,1.86v9.75Z"/>
  <path class="cls-1" d="M82.45,183.71v-20.38c0-1.41.99-2.1,2.07-2.1.69,0,1.41.21,1.95.81l15.34,16.74,15.33-16.74c.51-.57,1.26-.81,1.95-.81,1.08,0,2.07.69,2.07,2.1v20.38h-4.35v-15.04l-13.45,14.7c-.42.45-.93.66-1.56.66s-1.14-.21-1.56-.66l-13.44-14.7v15.04h-4.35Z"/>
  <path class="cls-1" d="M125.04,183.71v-14.64c0-4.83,2.83-7.53,8.56-7.53h10.23c5.73,0,8.55,2.7,8.55,7.53v14.64h-4.35v-7.08h-18.64v7.08h-4.35ZM129.39,172.58h18.64v-3.51c0-2.13-.96-3.18-4.23-3.18h-10.17c-3.27,0-4.23,1.05-4.23,3.18v3.51Z"/>
  <path class="cls-1" d="M156.26,183.71v-22.18h20.02c5.4,0,7.32,2.1,7.32,6.03v2.19c0,3.93-1.92,6.03-7.32,6.03h-3.36l11.34,7.93h-7.8l-10.5-7.93h-5.34v7.93h-4.35ZM160.61,171.89h15.69c1.95,0,2.82-.63,2.82-1.86v-2.28c0-1.23-.87-1.87-2.82-1.87h-15.69v6.01Z"/>
  <path class="cls-1" d="M195.46,183.71c-5.4,0-7.32-2.1-7.32-6.03v-10.11c0-3.93,1.92-6.03,7.32-6.03h19.96v4.35h-19.99c-1.95,0-2.82.64-2.82,1.87v9.75c0,1.23.87,1.86,2.82,1.86h20.05v4.35h-20.02Z"/>
  <polygon class="cls-1" points="219.36 183.71 219.36 161.54 246.63 161.54 246.63 165.88 223.71 165.88 223.71 168.8 242.46 168.8 242.46 172.85 223.71 172.85 223.71 179.36 246.69 179.36 246.69 183.71 219.36 183.71"/>
  <path class="cls-1" d="M250.58,183.71v-20.26c0-1.41.96-2.22,2.04-2.22.48,0,1.02.15,1.47.51l19.48,15.73v-15.94h4.35v20.28c0,1.41-.96,2.22-2.04,2.22-.48,0-1.02-.15-1.47-.51l-19.48-15.72v15.91h-4.35Z"/>
  <polygon class="cls-1" points="281.8 183.71 281.8 161.54 309.07 161.54 309.07 165.88 286.15 165.88 286.15 168.8 304.91 168.8 304.91 172.85 286.15 172.85 286.15 179.36 309.14 179.36 309.14 183.71 281.8 183.71"/>
  <rect class="cls-1" x="313.02" y="161.54" width="4.35" height="22.18"/>
  <path class="cls-1" d="M321.25,183.71v-22.18h20.02c5.4,0,7.32,2.1,7.32,6.03v2.19c0,3.93-1.92,6.03-7.32,6.03h-3.36l11.34,7.93h-7.8l-10.5-7.93h-5.34v7.93h-4.35ZM325.6,171.89h15.69c1.95,0,2.82-.63,2.82-1.86v-2.28c0-1.23-.87-1.87-2.82-1.87h-15.69v6.01Z"/>
  <path class="cls-1" d="M360.45,183.71c-5.4,0-7.32-2.1-7.32-6.03v-10.11c0-3.93,1.92-6.03,7.32-6.03h12.7c5.4,0,7.32,2.1,7.32,6.03v10.11c0,3.93-1.92,6.03-7.32,6.03h-12.7ZM357.6,177.5c0,1.23.87,1.86,2.82,1.86h12.75c1.95,0,2.82-.63,2.82-1.86v-9.75c0-1.23-.87-1.86-2.82-1.86h-12.75c-1.95,0-2.82.64-2.82,1.86v9.75Z"/>
  <path class="cls-1" d="M129.78,195.4c1.1-.18,2.55-.34,4.4-.34,2.26,0,3.92.53,4.98,1.48.98.84,1.55,2.13,1.55,3.72s-.47,2.87-1.37,3.79c-1.21,1.29-3.19,1.95-5.43,1.95-.68,0-1.31-.03-1.84-.16v7.11h-2.29v-17.55ZM132.07,203.96c.5.13,1.13.18,1.89.18,2.77,0,4.45-1.34,4.45-3.8s-1.66-3.48-4.19-3.48c-1,0-1.77.08-2.16.18v6.9Z"/>
  <path class="cls-1" d="M143.55,204.17c0-1.5-.02-2.79-.1-3.98h2.03l.08,2.5h.11c.58-1.71,1.97-2.79,3.53-2.79l.66.08v2.19l-.79-.08c-1.64,0-2.8,1.24-3.11,2.98-.05.32-.1.69-.1,1.08v6.8h-2.3v-8.77Z"/>
  <path class="cls-1" d="M153.38,206.99c.05,3.13,2.06,4.42,4.37,4.42,1.66,0,2.66-.29,3.53-.66l.39,1.66c-.82.37-2.21.79-4.24.79-3.93,0-6.27-2.58-6.27-6.43s2.26-6.87,5.98-6.87c4.16,0,5.27,3.66,5.27,6,0,.48-.05.85-.08,1.08h-8.96ZM160.18,205.33c.03-1.48-.61-3.77-3.21-3.77-2.34,0-3.37,2.16-3.55,3.77h6.77Z"/>
  <path class="cls-1" d="M174.46,212.47c-.61.32-1.95.74-3.66.74-3.84,0-6.35-2.61-6.35-6.51s2.69-6.77,6.85-6.77c1.37,0,2.58.35,3.21.66l-.53,1.79c-.55-.32-1.42-.61-2.68-.61-2.92,0-4.51,2.16-4.51,4.82,0,2.95,1.9,4.77,4.43,4.77,1.32,0,2.19-.34,2.85-.63l.39,1.74Z"/>
  <path class="cls-1" d="M179.75,196.61c.02.79-.55,1.42-1.48,1.42-.82,0-1.4-.63-1.4-1.42s.61-1.45,1.45-1.45,1.42.63,1.42,1.45M177.17,212.95v-12.75h2.32v12.75h-2.32Z"/>
  <path class="cls-1" d="M183.02,210.58c.68.45,1.89.92,3.05.92,1.68,0,2.48-.84,2.48-1.89,0-1.11-.66-1.71-2.37-2.34-2.29-.82-3.37-2.08-3.37-3.61,0-2.06,1.66-3.74,4.4-3.74,1.29,0,2.42.37,3.14.79l-.58,1.68c-.5-.32-1.42-.74-2.61-.74-1.37,0-2.13.79-2.13,1.74,0,1.05.76,1.53,2.42,2.16,2.21.85,3.34,1.95,3.34,3.85,0,2.24-1.74,3.82-4.77,3.82-1.39,0-2.69-.34-3.58-.87l.58-1.76Z"/>
  <path class="cls-1" d="M205.3,206.46c0,4.71-3.27,6.77-6.35,6.77-3.45,0-6.11-2.53-6.11-6.56,0-4.26,2.8-6.77,6.32-6.77s6.14,2.66,6.14,6.56M195.19,206.6c0,2.79,1.61,4.9,3.87,4.9s3.87-2.08,3.87-4.95c0-2.16-1.08-4.9-3.82-4.9s-3.93,2.53-3.93,4.95Z"/>
  <path class="cls-1" d="M218.9,209.47c0,1.32.02,2.48.1,3.48h-2.05l-.13-2.08h-.05c-.61,1.03-1.95,2.37-4.21,2.37-2,0-4.4-1.11-4.4-5.59v-7.45h2.32v7.06c0,2.42.74,4.05,2.85,4.05,1.56,0,2.64-1.08,3.06-2.11.13-.34.21-.76.21-1.18v-7.82h2.32v9.27Z"/>
  <path class="cls-1" d="M221,216.18c.58-1.55,1.29-4.37,1.58-6.3l2.58-.26c-.61,2.24-1.76,5.17-2.5,6.4l-1.66.16Z"/>
  <path class="cls-1" d="M240.6,212.95l-.18-1.61h-.08c-.71,1-2.08,1.9-3.9,1.9-2.58,0-3.9-1.82-3.9-3.66,0-3.08,2.74-4.77,7.67-4.74v-.27c0-1.05-.29-2.95-2.9-2.95-1.19,0-2.42.37-3.32.95l-.53-1.53c1.05-.68,2.58-1.13,4.19-1.13,3.9,0,4.85,2.66,4.85,5.21v4.77c0,1.11.05,2.19.21,3.06h-2.11ZM240.26,206.44c-2.53-.05-5.4.39-5.4,2.87,0,1.5,1,2.21,2.19,2.21,1.66,0,2.71-1.05,3.08-2.14l.13-.74v-2.21Z"/>
  <path class="cls-1" d="M254.93,210.97h-.05c-.69,1.26-2.11,2.27-4.16,2.27-2.98,0-5.4-2.58-5.4-6.46,0-4.77,3.08-6.87,5.77-6.87,1.98,0,3.29.98,3.93,2.21h.05l.08-1.92h2.19c-.05,1.08-.08,2.18-.08,3.5v14.46h-2.32v-7.19ZM254.93,205.36l-.1-.98c-.34-1.42-1.58-2.63-3.32-2.63-2.4,0-3.85,2.03-3.85,4.9,0,2.53,1.21,4.74,3.77,4.74,1.5,0,2.79-.92,3.32-2.53l.18-1.11v-2.4Z"/>
  <path class="cls-1" d="M271.74,209.47c0,1.32.03,2.48.11,3.48h-2.05l-.14-2.08h-.05c-.61,1.03-1.95,2.37-4.22,2.37-2,0-4.4-1.11-4.4-5.59v-7.45h2.32v7.06c0,2.42.74,4.05,2.85,4.05,1.55,0,2.63-1.08,3.05-2.11.13-.34.21-.76.21-1.18v-7.82h2.32v9.27Z"/>
  <path class="cls-1" d="M278.17,196.61c.03.79-.55,1.42-1.48,1.42-.82,0-1.39-.63-1.39-1.42s.6-1.45,1.45-1.45,1.42.63,1.42,1.45M275.58,212.95v-12.75h2.32v12.75h-2.32Z"/>
  <path class="cls-1" d="M290.12,196.54v3.66h3.32v1.76h-3.32v6.87c0,1.58.45,2.48,1.74,2.48.61,0,1.06-.08,1.34-.16l.11,1.74c-.45.18-1.16.32-2.05.32-1.08,0-1.95-.34-2.51-.98-.66-.68-.89-1.82-.89-3.32v-6.96h-1.98v-1.76h1.98v-3.06l2.26-.6Z"/>
  <path class="cls-1" d="M297.24,206.99c.05,3.13,2.06,4.42,4.37,4.42,1.66,0,2.66-.29,3.53-.66l.39,1.66c-.82.37-2.21.79-4.24.79-3.93,0-6.27-2.58-6.27-6.43s2.26-6.87,5.98-6.87c4.16,0,5.27,3.66,5.27,6,0,.48-.05.85-.08,1.08h-8.96ZM304.03,205.33c.03-1.48-.61-3.77-3.21-3.77-2.34,0-3.37,2.16-3.55,3.77h6.77Z"/>
  <path class="cls-1" d="M309.14,203.65c0-1.32-.03-2.4-.11-3.45h2.03l.11,2.05h.08c.71-1.21,1.9-2.34,4.01-2.34,1.74,0,3.05,1.05,3.61,2.55h.05c.39-.71.89-1.26,1.42-1.66.76-.58,1.61-.89,2.82-.89,1.69,0,4.19,1.11,4.19,5.53v7.51h-2.27v-7.22c0-2.45-.89-3.92-2.76-3.92-1.32,0-2.34.97-2.74,2.11-.1.32-.18.74-.18,1.16v7.88h-2.26v-7.64c0-2.02-.9-3.5-2.66-3.5-1.45,0-2.5,1.16-2.87,2.32-.13.34-.18.74-.18,1.13v7.69h-2.27v-9.3Z"/>
  <path class="cls-1" d="M330.56,211.58c0-.98.66-1.66,1.58-1.66s1.55.68,1.55,1.66-.61,1.66-1.58,1.66c-.92,0-1.55-.71-1.55-1.66"/>
  <path class="cls-2" d="M247.22,98.79v-.2s0,.2,0,.2ZM204.7,92.22c-1.2,1.06-3.03.94-4.09-.26-1.05-1.2-.94-3.03.26-4.09l28.73-25.33c1.16-1.02,2.9-.95,3.98.13l26.45,24.27.17.17c2.03,2.2,3.64,5.39,2.39,8.39-.52,1.25-1.46,2.26-2.76,2.93-1.12.57-2.54.88-4.19.84h0s-8.38.01-8.38.01c.04.18.07.44.07.81v.03s0,0,0,0l-.25,8.28v.02c-.08,6.07-.13,6.31-6.78,6.21l-.54-.02h0l-18-.24h-.3c-6.02-.07-6.04-.19-5.97-6.81v-11.92c0-1.59,1.3-2.89,2.89-2.89s2.89,1.3,2.89,2.89v11.97c-.01.96-.01.98.23.98h.3s.01,0,.01,0l18.02.24h.55c.87.02.91,0,.91-.5v-.1l.24-8.28c.05-2.36.11-3.57.98-4.73,1.11-1.5,2.19-1.61,4.22-1.71l.37-.03h8.52v.02h.07c.67.02,1.16-.07,1.49-.23l.05.02-.05-.28c-.14-.52-.52-1.15-1.17-1.88l-24.53-22.51-26.79,23.61ZM231.45,56.36c18.76,0,33.98,15.22,33.98,33.98s-15.22,33.98-33.98,33.98-33.97-15.22-33.97-33.98,15.22-33.98,33.97-33.98Z"/>
  <path class="cls-1" d="M212.49,90.99c-1.14-.91-2.16-1.89-3.06-2.95l3.82-3.37h11.43c-4.82,1.27-9,3.49-12.19,6.32"/>
  <path class="cls-1" d="M252.3,89.36c-2.64-2.07-5.91-3.68-9.55-4.68h6.25l4.14,3.8c-.27.3-.55.6-.84.88"/>
  <path class="cls-1" d="M259.22,102.8v-.56c0,.07,0,.14,0,.21v.15c0,.07,0,.14,0,.21M231.3,123.3h-.41.83-.42Z"/>
  <rect class="cls-1" x="136.64" y="218.73" width="189.63" height="8.2"/>
  <path class="cls-1" d="M202.23,252.87l.55-6.4-13.4.04-.66,5.37h6.04s-.2,5.57-.61,5.9c-.4.34-6.17,1.21-9.86,0-3.69-1.21-6.26-5.09-5.53-9.92.74-4.82,4.6-9.63,12.17-10.56,7.58-.94,12.26.5,12.66.7.4.2,0-5.9,0-5.9,0,0-2.7-1.96-10.31-1.47-7.59.5-16.9,2.47-21.13,12.86-2.39,5.87-1.16,11.65,2.66,15.55,3.65,3.72,9.28,5.35,13.15,5.37,5.5.02,17.34.02,17.34.02l7.88-22.62,6.05,22.62h3.33l12.31-22.11.36,22.11h7.77l-1.03-33.84h-7.85l-11.57,20.85-5.62-20.85h-7.24l-7.47,22.27Z"/>
  <polygon class="cls-1" points="203.77 238.38 199.15 230.8 199.48 229.11 204.44 232.14 203.77 238.38"/>
  <polygon class="cls-1" points="234.94 264.43 243.36 264.43 254.32 239.42 257.84 264.43 265.35 264.43 259.35 230.59 252.01 230.54 234.94 264.43"/>
  <path class="cls-1" d="M278,230.58h-14.28l-5.61,33.84h18.51c2.27,0,15.16-2.35,15.36-17.19.2-14.84-13.98-16.65-13.98-16.65M274.54,258.58h-8.03l3.3-22.44h5.35s9.56,1.12,9.56,10.9c0,8.63-6.66,11.54-10.18,11.54Z"/>
  <path class="cls-1" d="M189.74,274.21c-.73.36-1.51.54-2.34.54-.42,0-.8-.07-1.14-.2l-.83-.58-.47-.9c-.09-.35-.11-.74-.05-1.16.06-.44.19-.84.38-1.19l.73-.91c.29-.25.62-.45,1-.59.37-.13.77-.2,1.19-.2s.8.05,1.15.15l.9.54-.82.73-.58-.39-.77-.14-.79.15-.66.42-.47.62-.24.77.02.81.29.64.53.43.75.16.71-.07.61-.22.18-1.29h-1.12l.12-.88h2.1l-.39,2.8Z"/>
  <path class="cls-1" d="M192.37,269.14h1.9l.75.07.62.25.38.48.06.77-.16.54-.31.45-.44.32-.57.17,1.12,2.42h-1.17l-.94-2.32h-.71l-.32,2.32h-.97l.76-5.47ZM193.77,271.46l.42-.02.39-.09.31-.22.17-.42-.05-.39-.24-.22-.34-.1-.38-.02h-.84l-.21,1.48h.76Z"/>
  <polygon class="cls-1" points="201.9 272.6 201.6 273.49 201.04 274.17 200.29 274.6 199.4 274.75 198.54 274.6 197.9 274.17 197.54 273.49 197.49 272.6 197.98 269.14 198.95 269.14 198.47 272.57 198.47 272.99 198.62 273.4 198.96 273.7 199.53 273.82 200.13 273.7 200.55 273.4 200.81 272.99 200.93 272.57 201.41 269.14 202.38 269.14 201.9 272.6"/>
  <path class="cls-1" d="M204.35,269.14h1.84l.75.08.61.26.38.48.06.76-.3.83-.55.49-.73.23-.84.06h-.69l-.32,2.26h-.98l.77-5.47ZM205.58,271.51l.43-.02.43-.09.34-.23.18-.43-.05-.41-.25-.23-.36-.11-.4-.02h-.69l-.22,1.54h.59Z"/>
  <path class="cls-1" d="M209.16,271.9c.06-.44.19-.84.38-1.19l.73-.91c.29-.25.62-.45,1-.59.37-.13.77-.2,1.19-.2.43,0,.81.06,1.14.19l.84.57.47.91c.09.36.11.75.04,1.19-.06.43-.19.82-.38,1.17l-.73.9c-.3.25-.63.45-1,.59-.38.14-.78.22-1.2.22-.42,0-.8-.07-1.14-.2l-.83-.58-.47-.9c-.09-.35-.11-.74-.05-1.16M210.19,271.84l.02.81.29.64.53.42.75.16.79-.16.66-.42.47-.64.25-.81-.02-.77-.29-.62-.54-.42-.75-.15-.79.15-.66.42-.47.62-.24.77Z"/>
  <polygon class="cls-1" points="220.12 269.14 221.6 269.14 222.52 272.97 224.54 269.14 226 269.14 225.24 274.61 224.31 274.61 224.95 270.07 224.93 270.07 222.64 274.61 221.96 274.61 220.93 270.07 220.92 270.07 220.28 274.61 219.36 274.61 220.12 269.14"/>
  <path class="cls-1" d="M229.79,269.14h.84l1.59,5.47h-1.11l-.34-1.25h-2.37l-.67,1.25h-1.09l3.14-5.47ZM230.54,272.52l-.53-2.22-1.17,2.22h1.7Z"/>
  <path class="cls-1" d="M234.36,269.14h2.16l1.02.17.82.5.5.86c.1.34.13.74.06,1.2-.07.47-.21.87-.44,1.22l-.8.85-1,.5-1.03.17h-2.04l.76-5.47ZM235.42,273.73l.87-.1.75-.32.55-.57.3-.85-.03-.85-.35-.57-.6-.32-.81-.11h-.89l-.52,3.71h.73Z"/>
  <path class="cls-1" d="M244.57,270.42l-.53-.43-.55-.11-.79.15-.65.41-.47.62-.24.77.02.81.29.64.53.43.75.16.66-.16.66-.51.73.57c-.3.34-.64.59-1.01.74-.37.16-.76.23-1.16.23s-.8-.07-1.13-.2l-.83-.58-.47-.9c-.1-.35-.11-.74-.05-1.16.06-.44.19-.84.39-1.19l.73-.91c.29-.25.62-.45,1-.59.37-.13.77-.2,1.19-.2.37,0,.7.06,1,.2l.79.66-.83.56Z"/>
  <path class="cls-1" d="M246.38,271.9c.06-.44.19-.84.38-1.19l.72-.91c.29-.25.62-.45,1-.59.37-.13.77-.2,1.19-.2.43,0,.81.06,1.14.19l.84.57.47.91c.09.36.11.75.05,1.19-.06.43-.19.82-.38,1.17l-.73.9c-.3.25-.63.45-1,.59-.38.14-.78.22-1.21.22-.42,0-.8-.07-1.14-.2l-.83-.58-.47-.9c-.09-.35-.11-.74-.05-1.16M247.4,271.84l.02.81.29.64.53.42.75.16.8-.16.66-.42.47-.64.25-.81-.02-.77-.29-.62-.54-.42-.75-.15-.79.15-.66.42-.47.62-.24.77Z"/>
  <polygon class="cls-1" points="254.28 269.14 255.76 269.14 256.68 272.97 258.7 269.14 260.16 269.14 259.4 274.61 258.48 274.61 259.11 270.07 259.09 270.07 256.8 274.61 256.12 274.61 255.09 270.07 255.08 270.07 254.45 274.61 253.51 274.61 254.28 269.14"/>
  <path class="cls-1" d="M262.18,269.14h1.84l.75.08.6.26.38.48.06.76-.3.83-.55.49-.73.23-.84.06h-.69l-.32,2.26h-.97l.77-5.47ZM263.41,271.51l.44-.02.43-.09.34-.23.18-.43-.05-.41-.25-.23-.36-.11-.4-.02h-.69l-.22,1.54h.59Z"/>
  <polygon class="cls-1" points="267.67 269.14 271.29 269.14 271.17 270.02 268.52 270.02 268.33 271.37 270.84 271.37 270.72 272.24 268.21 272.24 268 273.73 270.79 273.73 270.66 274.61 266.9 274.61 267.67 269.14"/>
  <polygon class="cls-1" points="273.16 269.14 274.45 269.14 276.53 273.2 276.54 273.2 277.11 269.14 278.08 269.14 277.32 274.61 276.08 274.61 273.97 270.42 273.96 270.42 273.36 274.61 272.39 274.61 273.16 269.14"/>
</svg>