<?xml version="1.0" encoding="UTF-8"?>
<svg id="Camada_1" data-name="Camada 1" xmlns="http://www.w3.org/2000/svg" viewBox="0 0 462.91 331.11">
  <defs>
    <style>
      .cls-1 {
        fill: #fff;
        stroke-width: 0px;
      }
    </style>
  </defs>
  <path class="cls-1" d="M140.87,66.28c.68-.13,1.28.56,1.64,1.75,1.15,3.8,2.39,7.58,3.51,11.39.39,1.32.92,1.94,2.46,1.78,7.62-.82,15.24-1.53,22.87-2.27,1.22-.12,2.45-.27,3.68-.26.45,0,.94.4,1.34.7.19.15.24.49.35.75,1.52,3.79,1.53,3.84,5.65,3.36,11.11-1.29,22.21-2.64,33.31-3.94,4.33-.51,8.67-.98,13.01-1.41,2.81-.28,2.99-.49,3.07-3.4.13-4.64.35-9.28.5-13.92.05-1.54.79-2.07,2.31-2.2,9.58-.81,19.16-1.71,28.73-2.57,1.61-.15,3.24-.21,4.85-.38,1.32-.14,1.94.33,2.1,1.69.34,2.82.4,2.89,3.15,2.62,9.24-.93,18.46-1.93,27.7-2.88,8.07-.83,16.13-1.62,24.2-2.44,2.78-.28,5.56-.57,8.33-.91,1.8-.22,2.19.03,2.44,1.81,1.22,8.69,2.47,17.38,3.65,26.08.18,1.37.79,1.58,2.02,1.45,6-.67,12.02-1.22,18.01-1.9,1.66-.19,2.1.79,2.57,2.01,6.31,16.21,12.64,32.42,18.96,48.63,2.16,5.52,4.28,11.06,6.49,16.56.57,1.41.4,2.25-.91,3.22-16.9,12.54-33.75,25.14-50.62,37.73-23.14,17.27-46.28,34.55-69.41,51.83-15.69,11.72-31.38,23.45-47.07,35.17-2.05,1.53-2.03,1.53-4.1.02-15.36-11.23-30.73-22.44-46.1-33.67-26.93-19.69-53.85-39.37-80.75-59.1-.59-.44-1.14-1.28-1.24-2-.82-6.15-1.54-12.31-2.26-18.48-.84-7.16-1.65-14.33-2.5-21.49-1.07-9.05-2.16-18.1-3.25-27.14-1.21-10.1-2.43-20.2-3.64-30.3-.37-3.05-.69-6.11-1.06-9.16-.14-1.14.19-1.79,1.47-1.92,5.12-.52,10.22-1.1,15.34-1.65,8.12-.87,16.23-1.75,24.35-2.59,6.06-.63,12.13-1.2,18.19-1.81,2-.2,4-.45,6.65-.75ZM225.91,129.45s.02,0,.03,0c-.03-.22-.12-.46-.07-.66.13-.6.31-1.18.47-1.77.68.22,1.38.4,2.03.69.27.12.43.5.64.77,7.42,9.55,14.82,19.11,22.28,28.62.44.56,1.39,1.1,2.04,1.04,6.62-.68,13.23-1.51,19.85-2.24,1.32-.15,1.67-.73,1.52-1.99-1.31-10.89-2.58-21.78-3.86-32.67-1.52-12.89-3.03-25.79-4.55-38.68-.68-5.78-1.38-11.56-2.05-17.34-.15-1.27-.51-2.07-2.09-1.87-6.72.86-13.44,1.66-20.17,2.41-1.53.17-1.95.78-1.76,2.29.91,7.21,1.73,14.44,2.59,21.66.71,6.06,1.45,12.11,2.1,18.18.07.66-.36,1.38-.56,2.07-.75-.24-1.52-.44-2.24-.74-.29-.12-.48-.46-.71-.7-6.42-6.79-12.87-13.56-19.25-20.39-.91-.98-1.82-1.29-3.1-1.13-6.16.77-12.34,1.46-18.51,2.21-4.11.5-3.84-.05-3.34,4.38,1.45,12.73,2.97,25.45,4.48,38.18,1.44,12.11,2.9,24.22,4.31,36.34.14,1.25.65,1.68,1.84,1.48.61-.1,1.23-.09,1.84-.16,5.72-.67,11.45-1.37,17.17-2.01,3.57-.4,3.54-.35,3.11-3.95-1.36-11.33-2.69-22.67-4.03-34ZM134.56,73.98c-.78.08-1.17.11-1.56.15-15.73,1.87-31.46,3.73-47.18,5.6-2.81.33-2.8.32-2.48,3.06,2.95,25.07,5.9,50.14,8.85,75.2.6,5.11,1.23,10.22,1.85,15.33.11.9.3,1.62,1.53,1.47,7-.86,13.99-1.7,21-2.5,1.08-.12,1.46-.53,1.32-1.61-.37-2.88-.68-5.77-1.02-8.66-.97-8.33-1.91-16.66-2.92-24.99-.4-3.32-.18-3.51,3.11-3.83,5.95-.59,11.89-1.36,17.83-2.04,1.02-.12,1.51-.64,1.38-1.69-.61-5.05-1.25-10.09-1.81-15.15-.16-1.42-.76-1.71-2.1-1.54-6.33.79-12.68,1.43-19,2.25-1.64.21-2.09-.44-2.23-1.85-.35-3.5-.65-7.02-1.18-10.5-.26-1.66.47-2.14,1.8-2.31,2.28-.29,4.56-.53,6.83-.8,6.16-.74,12.32-1.51,18.48-2.23.98-.12,1.59-.4,1.45-1.55-.83-6.77-1.66-13.55-2.43-20.32-.14-1.27-.75-1.65-1.51-1.5ZM272.14,69.1c.18,1.51.32,2.67.45,3.84.59,5.11,1.19,10.22,1.74,15.34.16,1.51.73,2.15,2.36,1.9,3.04-.47,6.11-.73,9.15-1.17,1.42-.2,2.02.21,2.18,1.7.68,6.23,1.46,12.44,2.2,18.66.82,6.89,1.63,13.77,2.45,20.66,1.1,9.28,2.17,18.56,3.3,27.83.29,2.38.41,2.44,2.71,2.17,7.23-.84,14.44-1.75,21.67-2.53,1.6-.17,1.93-.83,1.75-2.28-.63-5-1.17-10.01-1.76-15.01-2.05-17.34-4.09-34.69-6.17-52.03-.16-1.37.27-1.9,1.66-2.05,4.89-.51,9.78-1.15,14.67-1.67,1.39-.15,1.93-.64,1.74-2.14-.77-6.05-1.45-12.12-2.14-18.18-.26-2.3-.33-2.37-2.73-2.13-8.24.84-16.48,1.68-24.73,2.52-9.47.97-18.93,1.94-28.4,2.91-1.19.12-2.54.13-2.12,1.66ZM180.16,165.49c3.04-.34,6.38-.69,9.71-1.08,2.33-.27,4.66-.61,6.99-.9.94-.12,1.28-.57.94-1.49-.19-.52-.36-1.06-.55-1.59-3.83-11.05-7.65-22.09-11.48-33.14-4.58-13.21-9.17-26.42-13.73-39.64-.42-1.23-1.08-1.64-2.37-1.48-6.27.78-12.55,1.52-18.84,2.2-1.34.15-1.96.71-2.18,2.03-.83,4.85-1.75,9.69-2.64,14.53-2.78,15.19-5.56,30.38-8.33,45.57-1.51,8.26-3.04,16.51-4.52,24.77-.36,2-.1,2.24,1.81,2.01,5.33-.63,10.66-1.25,15.99-1.91,2.47-.31,2.44-.35,2.77-2.85.81-6.04,1.71-12.06,2.44-18.11.22-1.79,1-2.48,2.72-2.64,4.18-.39,8.34-.92,12.51-1.36,2.38-.25,2.37-.22,3.07,2.13,1.14,3.8,2.3,7.6,3.43,11.41.3,1,.68,1.81,2.23,1.53ZM330.63,120.61c.12,0,.23,0,.35,0,0,8.95.03,17.91-.03,26.86-.01,1.58.53,2.09,2.06,1.9,3.94-.51,7.88-.99,11.83-1.4,1.38-.14,1.79-.83,1.74-2.11-.12-2.68-.15-5.37-.25-8.05-.04-1.14.36-1.78,1.57-1.91,2.67-.29,5.33-.63,7.99-.98,1.3-.17,1.94.39,2.33,1.59.9,2.76,1.95,5.48,2.82,8.26.41,1.31,1.08,1.78,2.45,1.6,4.1-.54,8.22-.98,12.33-1.49,2.03-.25,2.1-.36,1.36-2.32-6.49-17.23-13.01-34.45-19.47-51.69-.49-1.3-1.17-1.67-2.51-1.52-7.35.78-14.7,1.48-22.05,2.2-2.43.23-2.51.31-2.51,2.72,0,8.79,0,17.58,0,26.36Z"/>
  <path class="cls-1" d="M160.73,133.27c-1.22.12-1.58-.38-1.4-1.59.65-4.31,1.19-8.63,1.88-12.93.1-.6.84-1.09,1.28-1.63.54.45,1.38.8,1.57,1.37,1.34,4.03,2.54,8.1,3.79,12.16.33,1.06.08,1.76-1.13,1.9-2,.24-4,.47-5.99.71Z"/>
  <path class="cls-1" d="M345.71,114.23c0-2.01-.06-4.02.04-6.03.03-.61.51-1.2.78-1.79.56.42,1.42.72,1.63,1.27,1.48,3.98,2.8,8.01,4.23,12,.49,1.35.05,1.87-1.3,1.93-1.11.05-2.23.14-3.33.32-1.4.23-1.78-.42-1.76-1.67.04-2.01.01-4.02.01-6.03-.1,0-.2,0-.3,0Z"/>
</svg>