<?xml version="1.0" encoding="UTF-8"?>
<svg id="Camada_1" data-name="Camada 1" xmlns="http://www.w3.org/2000/svg" viewBox="0 0 462.91 331.11">
  <defs>
    <style>
      .cls-1 {
        fill: #fff;
        stroke-width: 0px;
      }
    </style>
  </defs>
  <path class="cls-1" d="M245.91,177.77c-9.11,0-14.56,4.78-14.56,12.81s5.44,12.76,14.56,12.76,14.61-4.76,14.61-12.76-5.47-12.81-14.61-12.81h0ZM245.91,196.23c-2.67,0-4.47-2.3-4.47-5.73s1.8-5.75,4.47-5.75,4.47,2.27,4.47,5.75-1.7,5.73-4.47,5.73h0ZM360.93,199.19c0,1.96,1.56,3.55,3.5,3.55h6.82v-24.36h-10.32v20.81h0ZM360.93,170.38h10.32v5.04h-10.32v-5.04ZM389.93,177.77c-9.11,0-14.56,4.78-14.56,12.81s5.44,12.76,14.56,12.76,14.61-4.76,14.61-12.76-5.47-12.81-14.61-12.81h0ZM389.93,196.23c-2.67,0-4.47-2.3-4.47-5.73s1.8-5.75,4.47-5.75,4.47,2.27,4.47,5.75c.02,3.55-1.7,5.73-4.47,5.73h0ZM196.86,139.11c-9.11,0-14.56,4.78-14.56,12.81s5.44,12.76,14.56,12.76,14.61-4.76,14.61-12.76-5.44-12.81-14.61-12.81h0ZM196.86,157.6c-2.67,0-4.47-2.3-4.47-5.73s1.8-5.75,4.47-5.75,4.47,2.27,4.47,5.75c.02,3.53-1.7,5.73-4.47,5.73ZM341.12,157.86c-1.11.02-5.73.26-9.8.26s-5.66-.43-6.49-3.12h16.52c.43,0,.78-.36.78-.78v-1.89c0-8.38-4.45-13.09-12.97-13.21-9.52-.12-13.97,4.88-13.97,12.4,0,8.26,4.36,13.21,14.75,13.21,7.43,0,10.79-3.03,11.46-6.51,0-.14-.14-.36-.28-.36h0ZM329.21,144.77c2.75,0,3.98,2.25,3.98,5.04h-8.47c0-2.82.95-5.04,4.5-5.04h0ZM356.01,131.75h-6.72c-1.94,0-3.5,1.59-3.5,3.55v28.78h10.23v-32.34h0ZM226.12,164.49c4.02.38,8.55-.45,10.27-.8.43-.09.71-.45.71-.9v-5.94s-1.89.21-6.39.21c-3.88,0-6.32-2.01-6.32-5.26s2.27-5.28,5.94-5.28c4.24,0,6.75.52,6.75.52v-6.01c0-.43-.28-.8-.71-.9-1.7-.38-6.18-1.23-9.71-1.02-7.57.45-12.29,4.88-12.29,12.74s4.45,11.98,11.74,12.64h0ZM327.88,178.29v3.15c-1.47-2.25-3.72-3.74-7.08-3.74-7.72,0-12.07,4.78-12.07,12.76v.09c0,7.98,4.36,12.76,12.07,12.76,3.39,0,5.61-1.49,7.08-3.74v.54c0,1.44,1.16,2.63,2.58,2.63h7.15v-24.45h-9.73ZM323.39,196.23c-2.67,0-4.47-2.3-4.47-5.73s1.8-5.73,4.47-5.73,4.47,2.2,4.47,5.73c.02,3.53-1.7,5.73-4.47,5.73ZM304.16,139.73l-2.89,15.93-3.22-15.93h-11.62l-3.22,15.93-2.89-15.93h-9.68l-10.08-.07c-1.51,0-2.98.92-3.79,2.39l-5.73,8.33v-18.72h-6.25c-1.94,0-3.5,1.59-3.5,3.55v28.78h9.75v-12.12l6.68,9.73c.8,1.47,2.27,2.39,3.79,2.39l10.11.07-9.87-13.02,8.9-11.32,5.82,24.33h10.89c1.21,0,2.23-.88,2.44-2.11l2.08-14.44h.8l2.08,14.44c.21,1.21,1.23,2.11,2.44,2.11h10.89l5.82-24.36-9.75.02h0ZM199.3,188.92c0,4.17-1.33,6.3-3.98,6.3-1.63,0-3.31-.54-3.31-4.57v-12.26h-9.75v13.9c0,7.01,3.5,10.84,9.85,10.84,3.2,0,5.94-1.14,7.95-3.22v.19c0,1.44,1.16,2.63,2.58,2.63h6.41v-24.33h-9.75v10.53h0ZM296.47,177.81c-3.39,0-6.32,1.44-8.36,4.12-1.68-2.65-4.45-4.12-7.98-4.12-2.96,0-5.61,1.14-7.57,3.2v-2.63h-8.9v24.36h9.66v-11.74c0-3.15,1.42-5.18,3.65-5.18,1.59,0,3.03.54,3.03,4.43v12.5h9.71v-11.74c0-3.2,1.37-5.18,3.6-5.18,1.59,0,3.03.54,3.03,4.43v12.5h9.66v-14.13c0-6.96-3.39-10.79-9.52-10.79ZM424.63,177.77c-3.2,0-5.94,1.14-7.95,3.24v-2.63h-9v24.36h9.75v-11.74c0-3.22,1.56-5.33,3.98-5.33,1.63,0,3.31.54,3.31,4.57v12.5h9.71v-14.13c0-7.01-3.48-10.84-9.8-10.84h0ZM351.48,170.38h-9.75v28.78c0,1.96,1.56,3.55,3.5,3.55h6.25v-17.19h5.89v-7.17h-5.89v-7.98h0ZM371.13,131.75h-6.72c-1.94,0-3.5,1.59-3.5,3.55v28.78h10.23v-32.34h0ZM158.87,170.38c-1.04,0-1.99.64-2.37,1.61l-12.29,30.75h10.2l2.27-6.11h11.74l1.25,3.53h0c.69,1.54,2.2,2.56,3.83,2.56h8l-12.92-32.36-9.73.02h0ZM159.32,189.41l3.36-9.14,3.22,9.14h-6.58ZM223.78,170.41h-10.34v28.78c0,1.96,1.56,3.55,3.5,3.55h6.84v-17.19h5.89v-7.17h-5.89v-7.98h0ZM177.59,151.63c-1.04-1.33-2.44-2.3-4.54-2.67v-.09c4.52-.54,7.22-3.62,7.22-8.59,0-6.23-4.45-8.64-11.67-8.64h-17.47v32.41h10.32v-11.79h2.84c1.42,0,2.86.24,3.27,1.68l2.91,8.47c.17.95.97,1.63,1.89,1.63h9.54l-3.57-10.82c-.12-.59-.38-1.11-.73-1.59h0ZM165.69,145.48h-4.07v-6.86h4.24c2.11,0,4.12.43,4.12,3.34-.02,3.24-2.13,3.53-4.28,3.53h0Z"/>
  <path class="cls-1" d="M55.16,147.73l37.52-27.79c.54-.4.26-1.25-.4-1.25h-30.77c-3.55,0-6.98,1.42-9.49,3.93l-19.6,19.58c-2.51,2.53-3.93,5.94-3.93,9.52v27.7c0,3.57,1.42,6.98,3.93,9.52l19.58,19.58c2.53,2.51,5.97,3.93,9.52,3.93h26.63c.73,0,.97-.99.28-1.33l-52.91-24.95c-2.2-1.04-3.62-3.27-3.62-5.7v-13.28c0-1.4.66-2.7,1.78-3.53l7.62-5.66v-10.27h13.87v.02Z"/>
  <path class="cls-1" d="M91.64,158.43l-3.62,9.85h7.08l-3.46-9.85ZM61.2,158.83c0-3.15-2.15-3.6-4.43-3.6h-4.57v7.43h4.4c2.32-.02,4.59-.33,4.59-3.83h0Z"/>
  <path class="cls-1" d="M118.82,142.73l-18.23-18.23c-1.02-1.02-2.63-1.16-3.83-.33l-35.08,23.62c6.65.43,10.68,3.1,10.68,9.26,0,5.35-2.89,8.69-7.79,9.28v.09c2.27.43,3.79,1.47,4.9,2.89.4.5.66,1.09.8,1.68l2.77,8.4,11.93-29.87c.43-1.04,1.44-1.73,2.56-1.73h10.49l13.94,34.89h-8.62c-1.75,0-3.39-1.11-4.12-2.77h0l-1.35-3.81h-12.66l-2.46,6.58h-18.91c-1.02,0-1.87-.73-2.04-1.78l-3.15-9.14c-.43-1.56-1.99-1.82-3.53-1.82h-3.05v12.71h-10.77v-21.16l-6.44,4.33c-.59.4-.92,1.07-.92,1.78v13.47c0,.88.52,1.66,1.3,1.99l60.72,25.42c1.14.5,2.44.24,3.31-.62l19.55-19.48c2.2-2.18,3.43-5.16,3.43-8.26v-29.16c0-3.1-1.23-6.06-3.43-8.24h0Z"/>
</svg>